<svg width="255" height="255" viewBox="0 0 255 255" fill="none" xmlns="http://www.w3.org/2000/svg">
<rect width="255" height="255" fill="#F9F9F9"/>
<path d="M127.5 136C105.72 136 88 118.281 88 96.5007C88 74.7201 105.72 57 127.5 57C149.28 57 167 74.7201 167 96.5007C167 118.281 149.28 136 127.5 136Z" fill="#E4E4E4"/>
<path d="M193.042 223H61.9583C58.6693 223 56 220.349 56 217.083V189.472C56 168.811 72.9295 152 93.7356 152H161.264C182.071 152 199 168.811 199 189.472V217.083C199 220.349 196.331 223 193.042 223Z" fill="#E4E4E4"/>
<path d="M220.503 58.9995C220.044 58.6889 217.703 57.0637 216.018 55.2348C211.004 56.8724 208.867 51.4477 208.867 51.4477C214.942 52.6629 218.278 43.901 213.821 42.4001C211.072 41.4732 210.023 43.5705 209.818 44.9049C209.642 46.0455 209.993 46.6593 209.993 46.6593C209.993 46.6593 202.883 48.4012 202.002 40.5214C201.889 35.6634 206.043 28.8745 214.558 34.5675C210.171 26.2007 215.062 22.5081 220.086 16.5343L220.47 16C225.639 22.2944 230.957 25.9547 226.442 34.57C234.957 28.877 239.111 35.6659 238.998 40.5239C238.117 48.4062 231.007 46.6617 231.007 46.6617C231.007 46.6617 231.358 46.0504 231.182 44.9074C230.977 43.573 229.931 41.4757 227.179 42.4025C222.725 43.9035 226.061 52.6679 232.133 51.4502C232.133 51.4502 229.996 56.8749 224.982 55.2373C223.108 57.27 220.553 59.0343 220.503 58.9995Z" fill="#E4E4E4"/>
</svg>
