<svg width="33" height="32" viewBox="0 0 33 32" fill="none" xmlns="http://www.w3.org/2000/svg">
<path fill-rule="evenodd" clip-rule="evenodd" d="M4.86473 0H27.4967C30.082 0 32.1857 2.10303 32.1857 4.6875V27.3125C32.1857 29.897 30.082 32 27.4967 32H4.86473C2.27946 32 0.175781 29.897 0.175781 27.3125V4.6875C0.175781 2.10303 2.27946 0 4.86473 0ZM7.74009 25.3748H11.4912V12.2499H7.74009V25.3748ZM11.4912 10.3746H7.74009V6.62462H11.4912V10.3746ZM20.8712 25.3748H24.6224V17.2303C24.6224 14.534 22.4774 12.2525 19.9334 12.2499C19.0625 12.2499 18.4871 12.464 17.8571 12.6985C17.6247 12.7851 17.3849 12.8743 17.1201 12.9566V12.2499H13.3689V25.3748H17.1201V17.8748C17.1201 16.8412 17.9616 15.9999 18.9956 15.9999C20.0296 15.9999 20.8712 16.8412 20.8712 17.8748V25.3748Z" fill="white"/>
</svg>
