<svg width="150" height="150" viewBox="0 0 150 150" fill="none" xmlns="http://www.w3.org/2000/svg">
<rect width="150" height="150" fill="white"/>
<path d="M75.5025 96.9995C75.0435 96.6889 72.7034 95.0637 71.0179 93.2348C66.0041 94.8724 63.8671 89.4477 63.8671 89.4477C69.9419 90.6629 73.2778 81.901 68.8207 80.4001C66.0718 79.4732 65.0234 81.5705 64.8177 82.9049C64.6421 84.0455 64.9933 84.6593 64.9933 84.6593C64.9933 84.6593 57.8826 86.4012 57.0022 78.5214C56.8894 73.6634 61.0429 66.8745 69.5581 72.5675C65.1714 64.2007 70.0623 60.5081 75.0862 54.5343L75.4699 54C80.6392 60.2944 85.9566 63.9547 81.4419 72.57C89.9571 66.877 94.1106 73.6659 93.9978 78.5239C93.1174 86.4062 86.0067 84.6617 86.0067 84.6617C86.0067 84.6617 86.3579 84.0504 86.1823 82.9074C85.9766 81.573 84.9307 79.4757 82.1793 80.4025C77.7247 81.9035 81.0606 90.6679 87.1329 89.4502C87.1329 89.4502 84.9959 94.8749 79.9821 93.2373C78.1085 95.27 75.5527 97.0343 75.5025 96.9995Z" fill="#E4E4E4"/>
</svg>
