<svg width="35" height="35" viewBox="0 0 35 35" fill="none" xmlns="http://www.w3.org/2000/svg">
<path d="M30.0959 13.0612C30.1303 12.9081 30.1489 12.7514 30.1489 12.5909V8.90909C30.1489 5.72054 23.155 4 16.5744 4C9.99387 4 3 5.72054 3 8.90909C3 9.04664 3.01388 9.18122 3.03931 9.31325C3.01524 9.37888 3 9.44884 3 9.52274V12.5909C3 13.6109 3.71662 14.4804 4.90562 15.1918C4.87005 15.3463 4.85107 15.5024 4.85107 15.659C4.85107 15.7966 4.86495 15.9312 4.89038 16.0633C4.86625 16.1289 4.85107 16.1988 4.85107 16.2727V19.3409C4.85107 19.6226 4.90675 19.8926 5.0108 20.1512C3.87221 20.9903 3.61704 21.8302 3.61704 22.4091C3.61704 22.5466 3.63092 22.6812 3.65635 22.8133C3.63222 22.8789 3.61704 22.9488 3.61704 23.0227V26.0909C3.61704 29.2795 10.611 31 17.1915 31C23.7721 31 30.766 29.2795 30.766 26.0909V22.4091C30.766 22.1367 30.7113 21.8676 30.6051 21.605C31.4853 20.9615 32 20.2052 32 19.3409V15.6591V15.659C32 14.9833 31.6594 14.0016 30.0959 13.0612ZM7.60732 6.45389C9.9933 5.66297 13.178 5.22731 16.5744 5.22731C19.9709 5.22731 23.1555 5.66297 25.5416 6.45389C27.6539 7.15413 28.9148 8.07197 28.9148 8.90909C28.9148 9.7462 27.6539 10.664 25.5416 11.3643C23.1554 12.1552 19.9709 12.5909 16.5744 12.5909C13.178 12.5909 9.99325 12.1552 7.60732 11.3643C5.49502 10.664 4.23403 9.7462 4.23403 8.90909C4.23403 8.07197 5.49508 7.15413 7.60732 6.45389ZM28.9149 11.0511V12.5909C28.9149 13.3 28.0074 14.0666 26.4468 14.7102V12.3462C27.4414 11.9802 28.2852 11.5477 28.9149 11.0511ZM25.2128 12.7457V15.1499C24.4573 15.3832 23.6291 15.5824 22.7447 15.7455V13.303C23.6142 13.1504 24.4439 12.9644 25.2128 12.7457ZM21.5107 13.4941V15.9452C20.7191 16.0555 19.8933 16.1391 19.0426 16.194V13.7383C19.8787 13.6842 20.7064 13.6025 21.5107 13.4941ZM17.8085 13.7982V16.2531C17.401 16.266 16.9894 16.2727 16.5745 16.2727C16.1596 16.2727 15.7479 16.266 15.3405 16.2531V13.7981C15.7522 13.8114 16.1641 13.8181 16.5745 13.8181C16.9848 13.8182 17.3967 13.8115 17.8085 13.7982ZM14.1064 13.7383V16.194C13.2557 16.1391 12.4298 16.0555 11.6383 15.9452V13.4942C12.4426 13.6025 13.2702 13.6842 14.1064 13.7383ZM10.4042 13.3031V15.7456C9.51985 15.5824 8.69159 15.3832 7.93617 15.1499V12.7457C8.70501 12.9644 9.53474 13.1505 10.4042 13.3031ZM4.23403 12.5909V11.0511C4.86376 11.5477 5.70754 11.9802 6.70209 12.3462V14.7102C5.14153 14.0666 4.23403 13.3 4.23403 12.5909ZM6.0851 17.801C6.71483 18.2976 7.55861 18.7301 8.55316 19.0961V21.4602C6.9926 20.8165 6.0851 20.05 6.0851 19.3409V17.801ZM7.31913 28.2102C5.75857 27.5666 4.85107 26.8 4.85107 26.0909V24.5511C5.4808 25.0477 6.32458 25.4802 7.31913 25.8462V28.2102ZM11.0213 29.2456C10.1369 29.0824 9.30863 28.8832 8.55322 28.6499V26.2457C9.32206 26.4643 10.1518 26.6504 11.0213 26.8031V29.2456ZM14.7234 29.694C13.8727 29.639 13.0469 29.5554 12.2553 29.4452V26.9941C13.0596 27.1025 13.8873 27.1841 14.7234 27.2383V29.694V29.694ZM18.4255 29.7531C18.018 29.766 17.6064 29.7727 17.1915 29.7727C16.7766 29.7727 16.3649 29.766 15.9574 29.7531V27.2982C16.3692 27.3115 16.7811 27.3182 17.1915 27.3182C17.6018 27.3182 18.0137 27.3115 18.4255 27.2982V29.7531ZM22.1277 29.4452C21.3361 29.5555 20.5103 29.6391 19.6596 29.694V27.2383C20.4957 27.1842 21.3234 27.1025 22.1277 26.9942V29.4452ZM25.8298 28.6499C25.0743 28.8832 24.2461 29.0824 23.3617 29.2455V26.803C24.2313 26.6504 25.061 26.4643 25.8298 26.2457V28.6499ZM29.5319 26.0909C29.5319 26.8 28.6244 27.5666 27.0639 28.2102V25.8462C28.0585 25.4801 28.9023 25.0477 29.5319 24.5511V26.0909ZM26.1587 24.8643C23.7725 25.6552 20.588 26.0909 17.1915 26.0909C13.7951 26.0909 10.6103 25.6552 8.22442 24.8643C6.11212 24.164 4.85113 23.2462 4.85113 22.4091C4.85113 21.9288 5.26931 21.4896 5.71416 21.1581C7.7807 23.1778 13.2314 24.25 18.4256 24.25C22.5793 24.25 26.897 23.5642 29.5172 22.2567C29.5263 22.3076 29.532 22.3584 29.532 22.4091C29.5319 23.2463 28.2709 24.164 26.1587 24.8643ZM9.78725 21.8999V19.4956C10.5561 19.7143 11.3858 19.9004 12.2553 20.053V22.4956C11.3709 22.3325 10.5427 22.1332 9.78725 21.8999ZM13.4894 22.6952V20.244C14.2937 20.3524 15.1214 20.4341 15.9574 20.4882V22.944C15.1068 22.8891 14.2809 22.8055 13.4894 22.6952ZM17.1915 23.0031V20.5481C17.6033 20.5614 18.0151 20.5681 18.4255 20.5681C18.8359 20.5681 19.2478 20.5614 19.6595 20.5481V23.0031C19.252 23.016 18.8404 23.0227 18.4255 23.0227C18.0106 23.0227 17.599 23.016 17.1915 23.0031ZM20.8936 22.944V20.4882C21.7298 20.4341 22.5574 20.3524 23.3617 20.244V22.6952C22.5702 22.8055 21.7443 22.8891 20.8936 22.944ZM24.5958 22.4956V20.053C25.4653 19.9004 26.295 19.7143 27.0638 19.4956V21.8999C26.3084 22.1332 25.4802 22.3325 24.5958 22.4956ZM30.766 19.3409C30.766 20.05 29.8585 20.8166 28.2979 21.4602V19.0962C29.2925 18.7301 30.1363 18.2977 30.766 17.8011V19.3409ZM27.3927 18.1142C25.0067 18.9052 21.822 19.3408 18.4256 19.3408C15.0291 19.3408 11.8444 18.9052 9.45845 18.1142C7.45496 17.4501 6.21945 16.5902 6.09728 15.7891C8.74687 16.9128 12.7308 17.5 16.5745 17.5C21.9837 17.5 27.6711 16.3372 29.5249 14.1524C30.3282 14.6486 30.766 15.1763 30.766 15.659C30.766 16.4961 29.5049 17.414 27.3927 18.1142Z" fill="black" stroke="black" stroke-width="0.25"/>
</svg>
