<?xml version="1.0" encoding="utf-8"?>
<!-- Generator: Adobe Illustrator 24.3.0, SVG Export Plug-In . SVG Version: 6.00 Build 0)  -->
<svg version="1.1" id="Camada_1" xmlns="http://www.w3.org/2000/svg" xmlns:xlink="http://www.w3.org/1999/xlink" x="0px" y="0px"
	 viewBox="0 0 35 35" style="enable-background:new 0 0 35 35;" xml:space="preserve">
<style type="text/css">
	.st0{fill:#B4CE4E;stroke:#B4CE4E;stroke-width:0.25;}
</style>
<path class="st0" d="M30.1,13.1c0-0.2,0.1-0.3,0.1-0.5V8.9c0-3.2-7-4.9-13.6-4.9C10,4,3,5.7,3,8.9C3,9,3,9.2,3,9.3s0,0.1,0,0.2v3.1
	c0,1,0.7,1.9,1.9,2.6c0,0.2-0.1,0.3-0.1,0.5c0,0.1,0,0.3,0,0.4s0,0.1,0,0.2v3.1c0,0.3,0.1,0.6,0.2,0.8c-1.1,0.8-1.4,1.7-1.4,2.3
	c0,0.1,0,0.3,0,0.4s0,0.1,0,0.2v3.1c0,3.2,7,4.9,13.6,4.9s13.6-1.7,13.6-4.9v-3.7c0-0.3-0.1-0.5-0.2-0.8c0.9-0.6,1.4-1.4,1.4-2.3
	v-3.7l0,0C32,15,31.7,14,30.1,13.1z M7.6,6.5c2.4-0.8,5.6-1.2,9-1.2s6.6,0.4,9,1.2C27.7,7.2,29,8.1,29,9c0,0.8-1.3,1.8-3.4,2.5
	c-2.4,0.8-5.6,1.2-9,1.2s-6.6-0.4-9-1.2C5.5,10.8,4.2,9.9,4.2,9C4.2,8.1,5.5,7.2,7.6,6.5z M28.9,11.1v1.5c0,0.7-0.9,1.5-2.5,2.1
	v-2.4C27.4,12,28.3,11.5,28.9,11.1z M25.2,12.7v2.4c-0.8,0.2-1.6,0.4-2.5,0.6v-2.4C23.6,13.2,24.4,13,25.2,12.7z M21.5,13.5V16
	c-0.8,0.1-1.6,0.2-2.5,0.2v-2.5C19.9,13.7,20.7,13.6,21.5,13.5z M17.8,13.8v2.5c-0.4,0-0.8,0-1.2,0c-0.4,0-0.8,0-1.2,0v-2.5
	c0.4,0,0.8,0,1.2,0C17,13.8,17.4,13.8,17.8,13.8z M14.1,13.7v2.5c-0.9-0.1-1.7-0.1-2.5-0.2v-2.5C12.4,13.6,13.3,13.7,14.1,13.7z
	 M10.4,13.3v2.4c-0.9-0.2-1.7-0.4-2.5-0.6v-2.4C8.7,13,9.5,13.2,10.4,13.3z M4.2,12.6v-1.5c0.6,0.5,1.5,0.9,2.5,1.3v2.4
	C5.1,14.1,4.2,13.3,4.2,12.6z M6.1,17.8c0.6,0.5,1.5,0.9,2.5,1.3v2.4C7,20.8,6.1,20,6.1,19.3V17.8z M7.3,28.2
	c-1.6-0.6-2.5-1.4-2.5-2.1v-1.5c0.6,0.5,1.5,0.9,2.5,1.3V28.2z M11,29.2c-0.9-0.2-1.7-0.4-2.5-0.6v-2.4c0.8,0.2,1.6,0.4,2.5,0.6
	V29.2z M14.7,29.7c-0.9-0.1-1.7-0.1-2.5-0.2V27c0.8,0.1,1.6,0.2,2.5,0.2V29.7L14.7,29.7z M18.4,29.8c-0.4,0-0.8,0-1.2,0
	s-0.8,0-1.2,0v-2.5c0.4,0,0.8,0,1.2,0s0.8,0,1.2,0V29.8z M22.1,29.4c-0.8,0.1-1.6,0.2-2.5,0.2v-2.5c0.8-0.1,1.7-0.1,2.5-0.2V29.4z
	 M25.8,28.6c-0.8,0.2-1.6,0.4-2.5,0.6v-2.4c0.9-0.2,1.7-0.3,2.5-0.6V28.6z M29.5,26.1c0,0.7-0.9,1.5-2.5,2.1v-2.4
	c1-0.4,1.8-0.8,2.5-1.3V26.1z M26.2,24.9c-2.4,0.8-5.6,1.2-9,1.2s-6.6-0.4-9-1.2c-2.1-0.7-3.4-1.6-3.4-2.5c0-0.5,0.4-0.9,0.9-1.3
	c2.1,2,7.5,3.1,12.7,3.1c4.2,0,8.5-0.7,11.1-2c0,0.1,0,0.1,0,0.2C29.5,23.2,28.3,24.2,26.2,24.9z M9.8,21.9v-2.4
	c0.8,0.2,1.6,0.4,2.5,0.6v2.4C11.4,22.3,10.5,22.1,9.8,21.9z M13.5,22.7v-2.5c0.8,0.1,1.6,0.2,2.5,0.2v2.5
	C15.1,22.9,14.3,22.8,13.5,22.7z M17.2,23v-2.5c0.4,0,0.8,0,1.2,0c0.4,0,0.8,0,1.2,0V23c-0.4,0-0.8,0-1.2,0S17.6,23,17.2,23z
	 M20.9,22.9v-2.5c0.8-0.1,1.7-0.1,2.5-0.2v2.5C22.6,22.8,21.7,22.9,20.9,22.9z M24.6,22.5v-2.4c0.9-0.2,1.7-0.3,2.5-0.6v2.4
	C26.3,22.1,25.5,22.3,24.6,22.5z M30.8,19.3c0,0.7-0.9,1.5-2.5,2.1V19c1-0.4,1.8-0.8,2.5-1.3V19.3z M27.4,18.1
	c-2.4,0.8-5.6,1.2-9,1.2s-6.6-0.4-9-1.2c-2-0.7-3.2-1.5-3.4-2.3c2.6,1.1,6.6,1.7,10.5,1.7c5.4,0,11.1-1.2,13-3.3
	c0.8,0.5,1.2,1,1.2,1.5C30.8,16.5,29.5,17.4,27.4,18.1z"/>
</svg>
