<?xml version="1.0" encoding="utf-8"?>
<!-- Generator: Adobe Illustrator 25.0.0, SVG Export Plug-In . SVG Version: 6.00 Build 0)  -->
<svg version="1.1" id="Camada_1" xmlns="http://www.w3.org/2000/svg" xmlns:xlink="http://www.w3.org/1999/xlink" x="0px" y="0px"
	 viewBox="0 0 250 250" style="enable-background:new 0 0 250 250;" xml:space="preserve">
<style type="text/css">
	.st0{fill:none;stroke:#000000;stroke-width:7;stroke-miterlimit:10;}
	.st1{fill:none;stroke:#000000;stroke-width:9;stroke-miterlimit:10;}
</style>
<path class="st1" d="M53.19,92.73c28.26,0,33.59,9.06,55.99,9.06s37.59-9.06,59.72-9.06s38.13,9.06,58.39,9.06"/>
<path class="st1" d="M127.01,68.54c13.85-2.64,26.11-7.25,41.89-7.25c22.13,0,38.13,9.06,58.39,9.06"/>
<path class="st1" d="M53.19,124.46c28.26,0,33.59,9.06,55.99,9.06s37.59-9.06,59.72-9.06s38.13,9.06,58.39,9.06"/>
<path class="st1" d="M53.19,29.85c28.26,0,33.59,9.06,55.99,9.06s37.59-9.06,59.72-9.06s38.13,9.06,58.39,9.06v1.95v121.36v3.03
	c-20.26,0-36.26-9.06-58.39-9.06s-37.33,9.06-59.72,9.06s-27.73-9.06-55.99-9.06"/>
<rect x="27.33" y="17.85" class="st1" width="25.86" height="214.22"/>
<line class="st1" x1="127.01" y1="99.99" x2="127.01" y2="37.1"/>
</svg>
