<svg width="45" height="45" viewBox="0 0 45 45" fill="none" xmlns="http://www.w3.org/2000/svg">
<path d="M14.6063 6.54822C10.302 4.76351 5.36779 6.81067 3.53059 11.115C2.63824 13.2146 2.63824 15.4718 3.53059 17.5714C4.37046 19.6711 5.99769 21.2983 8.09735 22.1382C9.14718 22.5581 10.2495 22.7681 11.3518 22.7681C12.4541 22.7681 13.5565 22.5581 14.5538 22.1382C16.6535 21.2983 18.2807 19.6711 19.1205 17.5714C20.9577 13.3196 18.9106 8.33292 14.6063 6.54822ZM18.1757 17.204C17.3883 19.0412 15.9711 20.4584 14.1339 21.1933C12.2967 21.9282 10.302 21.9282 8.46479 21.1933C6.62759 20.406 5.21032 18.9887 4.47544 17.1515C3.74056 15.3143 3.74056 13.3196 4.47544 11.4824C6.05018 7.70303 10.407 5.91832 14.1339 7.49306C17.9657 9.0678 19.7504 13.4246 18.1757 17.204Z" fill="black"/>
<path d="M13.0332 10.3801C13.0856 10.4326 13.1906 10.4326 13.2431 10.4326C13.4531 10.4326 13.6631 10.3276 13.7155 10.1177L14.293 8.75289C14.3979 8.49043 14.293 8.17549 14.0305 8.0705C13.768 7.96552 13.4531 8.0705 13.3481 8.33296L12.7707 9.69774C12.6657 9.96019 12.7707 10.2751 13.0332 10.3801Z" fill="black"/>
<path d="M9.72581 18.3586C9.46335 18.2536 9.1484 18.3586 9.04342 18.621L8.46601 19.9858C8.36103 20.2483 8.46601 20.5632 8.72847 20.6682C8.78096 20.7207 8.88594 20.7207 8.93843 20.7207C9.1484 20.7207 9.35837 20.6157 9.41086 20.4058L9.98826 19.041C10.1457 18.7785 9.98826 18.4636 9.72581 18.3586Z" fill="black"/>
<path d="M15.4465 15.8917C15.3415 16.1541 15.4465 16.4691 15.7089 16.5741L17.0737 17.1515C17.1262 17.204 17.2312 17.204 17.2837 17.204C17.4936 17.204 17.7036 17.099 17.7561 16.889C17.8611 16.6266 17.7561 16.3116 17.4936 16.2066L16.1289 15.6292C15.8664 15.4718 15.5515 15.6292 15.4465 15.8917Z" fill="black"/>
<path d="M6.7866 12.8476C6.8391 12.9001 6.94408 12.9001 6.99657 12.9001C7.20654 12.9001 7.4165 12.7951 7.46899 12.5852C7.57398 12.3227 7.46899 12.0078 7.20654 11.9028L5.84176 11.3254C5.5793 11.2204 5.26435 11.3254 5.15937 11.5878C5.05439 11.8503 5.15937 12.1652 5.42183 12.2702L6.7866 12.8476Z" fill="black"/>
<path d="M14.7645 11.0624C14.6071 11.3249 14.7121 11.6399 14.9745 11.7973L15.7094 12.2173L12.245 13.5295C12.14 13.4771 12.0875 13.3721 11.9825 13.3196C11.72 13.2146 11.4576 13.2146 11.1951 13.3196C10.9327 13.4246 10.7227 13.6345 10.6177 13.8445C10.5652 13.9495 10.5652 14.0545 10.5652 14.1069L5.63104 15.9966C5.36858 16.1016 5.2111 16.4166 5.31609 16.679C5.42107 16.889 5.57854 16.994 5.78851 16.994C5.841 16.994 5.89349 16.994 5.99848 16.9415L10.9852 15.0518C11.0377 15.1043 11.0901 15.1043 11.1426 15.1568C11.2476 15.2093 11.4051 15.2093 11.5101 15.2093C11.93 15.2093 12.2974 14.9993 12.4549 14.5794C12.4549 14.5269 12.5074 14.4744 12.5074 14.4219L15.8669 13.1621L15.5519 13.8445C15.4469 14.1069 15.5519 14.4219 15.8144 14.5269C15.8669 14.5794 15.9718 14.5794 16.0243 14.5794C16.2343 14.5794 16.3918 14.4744 16.4968 14.2644L17.2841 12.5322C17.3366 12.4272 17.3891 12.3747 17.3891 12.2173C17.3891 12.0073 17.2841 11.7973 17.1267 11.7448L15.3944 10.7475C15.237 10.695 14.922 10.8 14.7645 11.0624Z" fill="black"/>
<path d="M42.6899 7.65063L23.793 0.0393686C23.688 -0.0131229 23.5305 -0.0131229 23.373 0.0393686C23.268 0.09186 23.1631 0.196843 23.1106 0.301826L19.8561 8.38551C18.7538 6.75827 17.179 5.49848 15.3418 4.7636C12.7698 3.71377 9.98771 3.71377 7.41563 4.7636C4.84355 5.81343 2.84887 7.8081 1.79904 10.3277C-0.405595 15.5768 2.11399 21.6658 7.36314 23.8705C8.67542 24.3954 9.98771 24.6579 11.3525 24.6579C12.0349 24.6579 12.7173 24.6054 13.3996 24.4479L8.72791 36.101C8.67542 36.206 8.67542 36.3634 8.72791 36.5209C8.7804 36.6784 8.88539 36.7309 8.99037 36.7834L27.9398 44.4471C27.9923 44.4471 28.0448 44.4996 28.1497 44.4996C28.3597 44.4996 28.5697 44.3946 28.6222 44.1847L43.0048 8.38551C43.1098 8.07056 42.9523 7.75561 42.6899 7.65063ZM7.78307 22.9256C3.05884 20.931 0.801708 15.4718 2.79638 10.7476C3.74123 8.438 5.52594 6.65329 7.83556 5.70844C10.1452 4.7636 12.6648 4.7636 14.9744 5.70844C17.284 6.65329 19.0687 8.438 20.0136 10.7476C20.9584 13.0572 20.9584 15.5768 20.0136 17.8865C17.9664 22.6632 12.5073 24.9203 7.78307 22.9256ZM27.8348 43.2398L9.88272 36.0485L12.1399 30.4319C12.1923 30.4844 12.2448 30.4844 12.2448 30.5369C12.3498 30.5894 12.4023 30.6419 12.5073 30.6419C12.6648 30.6419 12.8747 30.5369 12.9272 30.3794C13.0847 30.117 13.0322 29.802 12.7698 29.6445C12.6648 29.592 12.5598 29.4871 12.5073 29.4346L14.607 24.1854V24.1329C17.3365 23.1881 19.6986 21.1934 20.8534 18.3064C20.8534 18.2539 20.9059 18.2014 20.9059 18.2014C22.2182 18.7788 26.47 20.9835 26.365 25.9701C26.2076 31.5867 29.567 35.3661 30.5643 36.3634L27.8348 43.2398ZM36.4434 21.8233C36.3384 21.7708 36.2334 21.7708 36.0759 21.7183C35.8135 21.6658 35.4985 21.8233 35.446 22.1383C35.3936 22.4007 35.551 22.7157 35.866 22.7682C35.9185 22.7682 35.971 22.7682 36.0235 22.8207L31.0368 35.2611C30.0394 34.1588 27.9923 31.5342 27.5198 27.8073L28.5172 26.81C28.7271 26.6 28.7271 26.2851 28.5172 26.0751C28.3072 25.8652 27.9923 25.8652 27.7823 26.0751L27.4674 26.3901C27.4674 26.2326 27.4674 26.1276 27.4674 25.9701C27.6248 20.3011 22.7431 17.834 21.3259 17.2041C21.9558 14.9469 21.8508 12.5848 20.9584 10.3802C20.8534 10.0652 20.696 9.80277 20.5385 9.54032L23.8454 1.19418L41.7975 8.438L36.4434 21.8233Z" fill="black"/>
<path d="M33.8199 21.8234C33.295 21.9284 32.8225 22.1384 32.2976 22.4533C32.0352 22.6108 31.9302 22.9257 32.0877 23.1882C32.1926 23.3457 32.3501 23.4507 32.5601 23.4507C32.6651 23.4507 32.7176 23.4507 32.8225 23.3982C33.295 23.1357 33.7149 22.9782 34.1348 22.8733C34.3973 22.8208 34.6072 22.5058 34.5023 22.2434C34.3973 21.9284 34.0823 21.7709 33.8199 21.8234Z" fill="black"/>
<path d="M19.2781 31.4812C19.1206 31.4812 18.9107 31.4812 18.7532 31.4812C18.4907 31.4812 18.1758 31.4812 17.8608 31.4287C17.5984 31.4287 17.3359 31.5862 17.2834 31.9011C17.2309 32.2161 17.4409 32.426 17.7559 32.4785C18.0708 32.531 18.4382 32.531 18.7532 32.531C18.9632 32.531 19.1731 32.531 19.3831 32.531C19.698 32.531 19.908 32.2686 19.8555 31.9536C19.803 31.6387 19.5406 31.4812 19.2781 31.4812Z" fill="black"/>
<path d="M22.4294 30.5372C22.2719 30.6422 22.1145 30.6947 21.957 30.7472C21.6945 30.9046 21.3796 31.0096 21.0646 31.1146C20.8022 31.2196 20.6447 31.482 20.7497 31.797C20.8022 32.007 21.0121 32.1644 21.2746 32.1644C21.3271 32.1644 21.3796 32.1644 21.4321 32.1644C21.747 32.0594 22.1145 31.902 22.4294 31.797C22.5869 31.692 22.7444 31.6395 22.9543 31.5345C23.2168 31.3771 23.3218 31.0621 23.1643 30.7996C23.0068 30.4847 22.6919 30.3797 22.4294 30.5372Z" fill="black"/>
<path d="M25.2107 28.4912C24.7908 28.8586 24.4234 29.1735 24.0559 29.436C23.846 29.5935 23.7935 29.9609 23.9509 30.1709C24.0559 30.3284 24.2134 30.3808 24.3709 30.3808C24.4759 30.3808 24.5808 30.3284 24.6858 30.2759C25.0533 29.9609 25.4732 29.646 25.8931 29.2785C26.1031 29.0686 26.1556 28.7536 25.9456 28.5436C25.7881 28.3337 25.4732 28.3337 25.2107 28.4912Z" fill="black"/>
<path d="M30.5127 23.6078C30.1452 23.9227 29.7253 24.2377 29.3054 24.6051C29.0954 24.8151 29.0954 25.13 29.2529 25.34C29.3579 25.445 29.5153 25.4975 29.6203 25.4975C29.7253 25.4975 29.8828 25.445 29.9878 25.34C30.4077 24.9726 30.7751 24.6576 31.1426 24.3951C31.3525 24.2377 31.405 23.8702 31.2476 23.6603C31.0901 23.5028 30.7226 23.4503 30.5127 23.6078Z" fill="black"/>
<path d="M15.9175 31.0622C15.445 30.9047 14.9726 30.7473 14.5527 30.5373C14.2902 30.4323 13.9753 30.5373 13.8703 30.7998C13.7653 31.0622 13.8703 31.3772 14.1328 31.4821C14.6052 31.6921 15.1301 31.9021 15.6025 32.0596C15.655 32.0596 15.7075 32.0596 15.76 32.0596C15.97 32.0596 16.1799 31.9021 16.2849 31.6921C16.3374 31.4297 16.1799 31.1147 15.9175 31.0622Z" fill="black"/>
<path d="M26.4688 12.8472C26.4688 14.527 27.8335 15.8917 29.5133 15.8917C31.193 15.8917 32.5578 14.527 32.5578 12.8472C32.5578 11.1675 31.193 9.80273 29.5133 9.80273C27.8335 9.80273 26.4688 11.1675 26.4688 12.8472ZM29.5133 10.8526C30.6156 10.8526 31.5079 11.7449 31.5079 12.8472C31.5079 13.9496 30.6156 14.8419 29.5133 14.8419C28.4109 14.8419 27.5186 13.9496 27.5186 12.8472C27.5186 11.7449 28.4109 10.8526 29.5133 10.8526Z" fill="black"/>
<path d="M23.7402 12.8482C23.7402 13.1631 23.9502 13.3731 24.2651 13.3731H25.315C25.6299 13.3731 25.8399 13.1631 25.8399 12.8482C25.8399 12.5332 25.6299 12.3232 25.315 12.3232H24.2651C23.9502 12.3232 23.7402 12.5857 23.7402 12.8482Z" fill="black"/>
<path d="M26.2606 14.5789C26.1031 14.3164 25.7881 14.2114 25.5257 14.3689L24.5808 14.8413C24.3184 14.9988 24.2134 15.3138 24.3709 15.5762C24.4758 15.7337 24.6333 15.8387 24.8433 15.8387C24.9483 15.8387 25.0008 15.8387 25.1057 15.7862L26.0506 15.3138C26.2606 15.1563 26.3655 14.8413 26.2606 14.5789Z" fill="black"/>
<path d="M26.6797 16.05L26.1023 16.9423C25.9448 17.2048 25.9973 17.5197 26.2597 17.6772C26.3647 17.7297 26.4697 17.7822 26.5747 17.7822C26.7321 17.7822 26.8896 17.6772 26.9946 17.5722L27.572 16.6799C27.7295 16.4174 27.677 16.1025 27.4145 15.945C27.2046 15.735 26.8371 15.7875 26.6797 16.05Z" fill="black"/>
<path d="M29.4114 18.1489L29.5164 17.0991C29.5689 16.8367 29.3589 16.5742 29.0439 16.5217C28.7815 16.4692 28.519 16.6792 28.4665 16.9941L28.3616 18.044C28.3091 18.3064 28.519 18.5689 28.834 18.6214H28.8865C29.1489 18.6214 29.4114 18.4114 29.4114 18.1489Z" fill="black"/>
<path d="M31.5085 16.5754C31.4035 16.3129 31.0886 16.1554 30.8261 16.2604C30.5637 16.3654 30.4587 16.6804 30.5637 16.9428L30.9311 17.9401C31.0361 18.1501 31.1936 18.2551 31.4035 18.2551C31.456 18.2551 31.5085 18.2551 31.6135 18.2026C31.876 18.0976 32.0334 17.7827 31.9284 17.5202L31.5085 16.5754Z" fill="black"/>
<path d="M33.1378 16.6786C33.2428 16.7836 33.3478 16.7836 33.5053 16.7836C33.6627 16.7836 33.8202 16.7311 33.9252 16.6261C34.1352 16.4162 34.0827 16.1012 33.8727 15.8912L33.0853 15.2089C32.8754 14.9989 32.5604 15.0514 32.3505 15.2614C32.1405 15.4713 32.193 15.7863 32.403 15.9962L33.1378 16.6786Z" fill="black"/>
<path d="M34.764 13.5294L33.7142 13.2669C33.4517 13.2144 33.1368 13.3719 33.0843 13.6343C33.0318 13.8968 33.1893 14.2117 33.4517 14.2642L34.5015 14.5267C34.554 14.5267 34.6065 14.5267 34.6065 14.5267C34.869 14.5267 35.0789 14.3692 35.1314 14.1068C35.1839 13.8968 35.0265 13.5818 34.764 13.5294Z" fill="black"/>
<path d="M33.0847 11.9014C33.1372 12.1114 33.3471 12.2688 33.6096 12.2688C33.6621 12.2688 33.7146 12.2688 33.767 12.2688L34.7644 12.0064C35.0268 11.9539 35.2368 11.639 35.1318 11.3765C35.0793 11.114 34.7644 10.9041 34.5019 11.0091L33.5046 11.2715C33.1372 11.324 32.9797 11.639 33.0847 11.9014Z" fill="black"/>
<path d="M32.6125 10.5381C32.7175 10.5381 32.875 10.4856 32.9799 10.3806L33.7673 9.64571C33.9773 9.43575 33.9773 9.1208 33.8198 8.91084C33.6098 8.70087 33.2949 8.70087 33.0849 8.85834L32.2976 9.59322C32.0876 9.80319 32.0876 10.1181 32.2451 10.3281C32.2976 10.4856 32.455 10.5381 32.6125 10.5381Z" fill="black"/>
<path d="M30.7232 9.38303C30.7757 9.38303 30.8282 9.43552 30.8807 9.43552C31.0906 9.43552 31.3006 9.27804 31.3531 9.06808L31.7205 8.07074C31.8255 7.80828 31.668 7.49334 31.4056 7.38835C31.1431 7.28337 30.8282 7.44084 30.7232 7.7033L30.3558 8.70064C30.3033 8.9631 30.4607 9.27804 30.7232 9.38303Z" fill="black"/>
<path d="M28.8838 9.22518H28.9363C29.1988 9.17269 29.4088 8.91024 29.3563 8.64778L29.1988 7.59795C29.1463 7.33549 28.8838 7.12553 28.6214 7.17802C28.3589 7.23051 28.149 7.49297 28.2015 7.75543L28.3589 8.80525C28.4114 9.01522 28.6214 9.22518 28.8838 9.22518Z" fill="black"/>
<path d="M26.575 9.75127C26.68 9.90874 26.8374 9.96123 26.9949 9.96123C27.0999 9.96123 27.2049 9.90874 27.3099 9.85625C27.5198 9.69878 27.5723 9.33134 27.4148 9.12137L26.7849 8.28151C26.6275 8.07154 26.26 8.01905 26.0501 8.17652C25.8401 8.334 25.7876 8.70144 25.9451 8.9114L26.575 9.75127Z" fill="black"/>
<path d="M24.5273 11.0105L25.4721 11.4829C25.5246 11.5354 25.6296 11.5354 25.6821 11.5354C25.8921 11.5354 26.0495 11.4304 26.1545 11.2204C26.2595 10.958 26.1545 10.643 25.8921 10.538L24.9472 10.0656C24.6848 9.96064 24.3698 10.0656 24.2648 10.3281C24.1599 10.5905 24.2648 10.9055 24.5273 11.0105Z" fill="black"/>
</svg>
