<svg width="460" height="460" viewBox="0 0 460 460" fill="none" xmlns="http://www.w3.org/2000/svg">
<path d="M70.7676 46H389.228V238.192H70.7676V46Z" fill="#082255"/>
<path d="M120.668 0H339.336V155.348H120.668V0Z" fill="#EAEAF0"/>
<path d="M315.332 88.332C314.413 88.3326 313.502 88.1519 312.653 87.8003C311.803 87.4487 311.031 86.9331 310.381 86.283C309.731 85.6328 309.215 84.861 308.864 84.0114C308.512 83.1619 308.332 82.2514 308.332 81.332V40.332C308.332 38.4755 309.07 36.695 310.382 35.3823C311.695 34.0695 313.476 33.332 315.332 33.332C317.189 33.332 318.969 34.0695 320.282 35.3823C321.595 36.695 322.332 38.4755 322.332 40.332V81.332C322.333 82.2514 322.152 83.1619 321.8 84.0114C321.449 84.861 320.933 85.6328 320.283 86.283C319.633 86.9331 318.861 87.4487 318.011 87.8003C317.162 88.1519 316.251 88.3326 315.332 88.332V88.332Z" fill="#BEBEC3"/>
<path d="M436 150.385H24C10.7452 150.385 0 161.13 0 174.385V365.233C0 378.488 10.7452 389.233 24 389.233H436C449.255 389.233 460 378.488 460 365.233V174.385C460 161.13 449.255 150.385 436 150.385Z" fill="#2C4678"/>
<path d="M135.332 205.385H36C34.1435 205.385 32.363 204.647 31.0503 203.335C29.7375 202.022 29 200.241 29 198.385C29 196.528 29.7375 194.748 31.0503 193.435C32.363 192.122 34.1435 191.385 36 191.385H135.332C137.189 191.385 138.969 192.122 140.282 193.435C141.595 194.748 142.332 196.528 142.332 198.385C142.332 200.241 141.595 202.022 140.282 203.335C138.969 204.647 137.189 205.385 135.332 205.385Z" fill="#EAEAF0"/>
<path d="M70.7676 304H389.228V389.232H70.7676V304Z" fill="#082255"/>
<path d="M120.668 304H339.336V460H120.668V304Z" fill="#EAEAF0"/>
<path d="M290 345H170C168.143 345 166.363 344.262 165.05 342.95C163.737 341.637 163 339.857 163 338C163 336.143 163.737 334.363 165.05 333.05C166.363 331.738 168.143 331 170 331H290C291.857 331 293.637 331.738 294.95 333.05C296.262 334.363 297 336.143 297 338C297 339.857 296.262 341.637 294.95 342.95C293.637 344.262 291.857 345 290 345V345Z" fill="#BEBEC3"/>
<path d="M290 381H170C168.143 381 166.363 380.262 165.05 378.95C163.737 377.637 163 375.857 163 374C163 372.143 163.737 370.363 165.05 369.05C166.363 367.738 168.143 367 170 367H290C291.857 367 293.637 367.738 294.95 369.05C296.262 370.363 297 372.143 297 374C297 375.857 296.262 377.637 294.95 378.95C293.637 380.262 291.857 381 290 381Z" fill="#BEBEC3"/>
<path d="M290 417H170C168.143 417 166.363 416.262 165.05 414.95C163.737 413.637 163 411.857 163 410C163 408.143 163.737 406.363 165.05 405.05C166.363 403.738 168.143 403 170 403H290C291.857 403 293.637 403.738 294.95 405.05C296.262 406.363 297 408.143 297 410C297 411.857 296.262 413.637 294.95 414.95C293.637 416.262 291.857 417 290 417V417Z" fill="#BEBEC3"/>
<path d="M412 210.385C418.627 210.385 424 205.012 424 198.385C424 191.757 418.627 186.385 412 186.385C405.373 186.385 400 191.757 400 198.385C400 205.012 405.373 210.385 412 210.385Z" fill="#EAEAF0"/>
<path d="M364.5 210.385C371.127 210.385 376.5 205.012 376.5 198.385C376.5 191.757 371.127 186.385 364.5 186.385C357.873 186.385 352.5 191.757 352.5 198.385C352.5 205.012 357.873 210.385 364.5 210.385Z" fill="#EAEAF0"/>
<path d="M317 210.385C323.627 210.385 329 205.012 329 198.385C329 191.757 323.627 186.385 317 186.385C310.373 186.385 305 191.757 305 198.385C305 205.012 310.373 210.385 317 210.385Z" fill="#EAEAF0"/>
</svg>
