<svg width="10" height="14" viewBox="0 0 10 14" fill="none" xmlns="http://www.w3.org/2000/svg">
<path d="M4.99939 2.06348C3.37355 2.06348 2.05078 3.39369 2.05078 5.02874C2.05078 6.6638 3.37355 7.99401 4.99939 7.99401C6.62523 7.99401 7.94801 6.6638 7.94801 5.02874C7.94801 3.39369 6.62523 2.06348 4.99939 2.06348ZM4.99939 7.19637C3.81087 7.19637 2.84387 6.22395 2.84387 5.02869C2.84387 3.83343 3.81087 2.86106 4.99939 2.86106C6.18792 2.86106 7.15491 3.83348 7.15491 5.02874C7.15491 6.22401 6.18798 7.19637 4.99939 7.19637Z" fill="#979797"/>
<path d="M4.99997 0C2.24297 0 0 2.25568 0 5.0283C0 6.62731 1.33345 9.00959 2.12829 10.2873C2.65126 11.1279 3.21324 11.9279 3.71067 12.5399C4.5091 13.5222 4.79488 13.6044 5.00003 13.6044C5.20824 13.6044 5.47805 13.5222 6.274 12.5393C6.77254 11.9237 7.33479 11.1241 7.85722 10.2879C8.65751 9.00709 10 6.62055 10 5.02825C10 2.25568 7.75703 0 4.99997 0ZM7.3074 9.66691C6.28188 11.3409 5.34037 12.4721 4.99527 12.7609C4.64837 12.481 3.72214 11.3767 2.68229 9.67217C1.48171 7.70399 0.793146 6.01136 0.793146 5.0283C0.793093 2.69547 2.68028 0.797586 4.99997 0.797586C7.31966 0.797586 9.20685 2.69547 9.20685 5.0283C9.20691 6.00572 8.51454 7.69639 7.3074 9.66691Z" fill="#979797"/>
</svg>
