<svg width="45" height="45" viewBox="0 0 45 45" fill="none" xmlns="http://www.w3.org/2000/svg">
<path d="M16.8974 15.3525C16.1019 16.1479 16.1019 17.3979 16.8974 18.1934C17.2951 18.5911 17.8065 18.7616 18.3179 18.7616C18.8292 18.7616 19.3406 18.5911 19.7383 18.1934C20.5338 17.3979 20.5338 16.1479 19.7383 15.3525C18.9429 14.557 17.6928 14.557 16.8974 15.3525ZM18.9429 17.3979C18.6019 17.7389 18.0338 17.7389 17.6928 17.3979C17.3519 17.057 17.3519 16.4888 17.6928 16.1479C17.8633 15.9775 18.0906 15.9206 18.3179 15.9206C18.5451 15.9206 18.7724 15.9775 18.9429 16.1479C19.2838 16.4888 19.2838 17.057 18.9429 17.3979Z" fill="black"/>
<path d="M36.6122 35.0683C35.8168 35.8637 35.8168 37.1138 36.6122 37.9092C37.01 38.307 37.5213 38.4774 38.0327 38.4774C38.5441 38.4774 39.0554 38.307 39.4532 37.9092C40.2486 37.1138 40.2486 35.8637 39.4532 35.0683C38.6577 34.2728 37.4077 34.2728 36.6122 35.0683ZM38.6577 37.0569C38.3168 37.3979 37.7486 37.3979 37.4077 37.0569C37.0668 36.716 37.0668 36.1478 37.4077 35.8069C37.5781 35.6365 37.8054 35.5796 38.0327 35.5796C38.26 35.5796 38.4872 35.6365 38.6577 35.8069C38.9418 36.2047 38.9418 36.716 38.6577 37.0569Z" fill="black"/>
<path d="M42.4082 32.4549L42.2378 8.81827C42.2378 8.70463 42.1809 8.59099 42.1241 8.53417L38.1468 2.28409C38.0332 2.11364 37.8059 2 37.5786 2C37.3513 2.05682 37.1809 2.17046 37.1241 2.39773C36.9536 2.96592 33.7717 15.2956 35.8172 25.8639L21.6125 11.6592C19.7375 9.78419 16.7261 9.78419 14.851 11.6592L13.1465 13.3638C12.2374 14.2729 11.726 15.4661 11.726 16.7729C11.726 18.0797 12.2374 19.2729 13.1465 20.182L13.2601 20.2957L1.89633 31.6595C1.83951 31.7163 1.78269 31.8299 1.72587 31.9436L0.0213071 39.1596C-0.0355118 39.33 0.0213072 39.5573 0.191764 39.7278C0.305402 39.8414 0.41904 39.8982 0.589496 39.8982C0.646315 39.8982 0.703134 39.8982 0.759953 39.8982C1.2145 39.7846 11.3283 36.6595 16.9533 24.0457L21.3284 28.4208C21.6693 28.7617 21.8398 29.1594 21.8966 29.5572C21.9534 29.8981 21.8398 30.239 21.6125 30.4663C21.3852 30.6935 21.1011 30.7504 20.7034 30.7504C20.3057 30.6935 19.9079 30.5231 19.567 30.1822C19.0556 29.6708 18.4306 29.3299 17.7488 29.2731C17.067 29.2163 16.3852 29.3867 15.9306 29.8413C15.4761 30.2958 15.2488 30.9208 15.3624 31.6595C15.4192 32.3413 15.7601 32.9663 16.2715 33.4777C16.6124 33.8186 16.7829 34.2163 16.8397 34.6141C16.8965 34.955 16.7829 35.2959 16.5556 35.5232C16.3283 35.7504 16.0442 35.8073 15.6465 35.8073C15.2488 35.7504 14.851 35.58 14.5101 35.2391C13.9988 34.7277 13.3738 34.3868 12.6919 34.33C12.0101 34.2731 11.3283 34.4436 10.8737 34.8981C10.4192 35.3527 10.1919 35.9777 10.3055 36.7164C10.3623 37.3982 10.7033 38.0232 11.2146 38.5346C11.5555 38.8755 11.726 39.2732 11.7828 39.6709C11.8396 40.0119 11.726 40.3528 11.4987 40.58C11.2715 40.8073 10.9874 40.8641 10.5896 40.8641C10.1919 40.8073 9.79416 40.6369 9.45325 40.2959C9.22597 40.0687 8.88506 40.0687 8.65778 40.2959C8.43051 40.5232 8.43051 40.8641 8.65778 41.0914C9.16915 41.6028 9.79416 41.9437 10.476 42.0005C10.5896 42.0005 10.6464 42.0005 10.7601 42.0005C11.3283 42.0005 11.8965 41.7732 12.2942 41.3755C12.7487 40.921 12.976 40.2959 12.8624 39.5573C12.8056 38.8755 12.4647 38.2505 11.9533 37.7391C11.6124 37.3982 11.4419 37.0004 11.3851 36.6027C11.3283 36.2618 11.4419 35.9209 11.6692 35.6936C11.8965 35.4663 12.1806 35.4095 12.5783 35.4095C12.976 35.4663 13.3738 35.6368 13.7147 35.9777C14.226 36.4891 14.851 36.83 15.5329 36.8868C15.6465 36.8868 15.7033 36.8868 15.817 36.8868C16.3852 36.8868 16.9533 36.6595 17.3511 36.2618C17.8056 35.8073 18.0329 35.1822 17.9193 34.4436C17.8624 33.7618 17.5215 33.1368 17.0102 32.6254C16.6692 32.2845 16.4988 31.8867 16.442 31.489C16.3852 31.1481 16.4988 30.8072 16.7261 30.5799C16.9533 30.3526 17.2374 30.2958 17.6352 30.2958C18.0329 30.3526 18.4306 30.5231 18.7716 30.864C19.2829 31.3754 19.9079 31.7163 20.5898 31.7731C20.7034 31.7731 20.7602 31.7731 20.8738 31.7731C21.442 31.7731 22.0102 31.5458 22.408 31.1481C22.6921 30.864 22.9193 30.4663 22.9761 30.0117L34.4536 41.4891C35.3627 42.3982 36.6127 42.9096 37.8627 42.9096C39.1127 42.9096 40.3059 42.4551 41.2718 41.4891L42.9764 39.7846C43.8855 38.8755 44.3969 37.6823 44.3969 36.3754C44.3969 35.0686 43.8855 33.8754 42.9764 32.9663L42.4082 32.4549ZM37.9195 4.04548L41.1014 9.04554L41.2718 31.3186L37.3513 27.3981C35.0786 18.7048 37.1241 7.73871 37.9195 4.04548ZM16.0442 23.1935C11.6692 33.3072 4.05545 37.2277 1.38496 38.3641L2.80543 32.3413L14.0556 21.0912L16.1011 23.1366C16.1011 23.1366 16.0442 23.1935 16.0442 23.1935ZM42.1809 39.0459L40.4764 40.7505C39.0559 42.171 36.7263 42.171 35.3059 40.7505L13.9419 19.3298C13.2601 18.6479 12.8624 17.7388 12.8624 16.7729C12.8624 15.807 13.2601 14.8979 13.9419 14.2161L15.6465 12.5115C16.3852 11.7729 17.2943 11.4319 18.2034 11.4319C19.1125 11.4319 20.0784 11.7729 20.7602 12.5115L42.1809 33.9322C42.8628 34.6141 43.2605 35.5232 43.2605 36.4891C43.2605 37.455 42.8628 38.3073 42.1809 39.0459Z" fill="black"/>
</svg>
