<svg width="501" height="442" viewBox="0 0 501 442" fill="none" xmlns="http://www.w3.org/2000/svg">
<path d="M398 0C341.207 0 295 46.2069 295 103C295 120.049 299.263 136.954 307.366 151.947L392.367 305.68C393.499 307.73 395.655 308.999 398 308.999C400.345 308.999 402.501 307.73 403.633 305.68L488.665 151.897C496.737 136.954 501 120.049 501 102.999C501 46.2069 454.793 0 398 0ZM477.368 145.717L398 289.26L318.663 145.774C311.603 132.71 307.875 117.918 307.875 103C307.875 53.3042 348.305 12.8754 398 12.8754C447.695 12.8754 488.125 53.3048 488.125 103C488.125 117.918 484.397 132.71 477.368 145.717Z" fill="#1C376B"/>
<path d="M398 51.5C369.603 51.5 346.5 74.6031 346.5 103C346.5 131.397 369.603 154.5 398 154.5C426.396 154.5 449.499 131.397 449.499 103C449.499 74.6037 426.396 51.5 398 51.5ZM398 141.625C376.7 141.625 359.375 124.3 359.375 103C359.375 81.7011 376.7 64.3754 398 64.3754C419.299 64.3754 436.625 81.7011 436.625 103C436.625 124.299 419.299 141.625 398 141.625Z" fill="#1C376B"/>
<path fill-rule="evenodd" clip-rule="evenodd" d="M373.359 409.355L383.715 434.207C384.438 435.943 384.246 437.927 383.201 439.492C382.592 440.409 381.736 441.111 380.756 441.535C380.061 441.836 379.301 441.998 378.52 441.998H192.105L192.076 442L192.057 441.998H154.818L154.787 442L154.768 441.998H5.62893C3.74807 441.998 1.99026 441.058 0.947292 439.492C-0.0956765 437.927 -0.289036 435.943 0.435574 434.207L9.9512 411.366L1.64846 403.062C-0.519505 400.895 -0.552708 397.392 1.57034 395.183L28.2598 367.427L93.2246 211.511V125.627C93.2246 122.52 95.7442 120 98.8516 120C101.959 120 104.479 122.52 104.479 125.627V126.215H167.215C170.322 126.215 172.842 128.734 172.842 131.842V175.345C172.842 178.452 170.322 180.972 167.215 180.972H104.479V207.009H285.297C286.102 207.009 286.879 207.181 287.586 207.494C287.824 207.601 288.055 207.724 288.275 207.861C289.248 208.468 290.033 209.368 290.492 210.471L373.336 409.298L373.359 409.355ZM281.547 218.263H107.293L185.467 405.887L190.156 417.141L195.824 430.744H370.08L364.41 417.141L359.721 405.887L281.547 218.263ZM161.588 137.469H104.479V169.718H161.588V137.469ZM18.5586 419.971L14.0703 430.744H29.3321L18.5586 419.971ZM40.9571 426.45L82.125 327.645L13.5098 399.006L40.9571 426.45ZM98.8535 316.761L51.3594 430.744H146.346L98.8535 316.761ZM104.047 299.966L158.537 430.744H183.633L176.543 413.728L176.52 413.673L104.479 240.771V262.355C104.479 265.463 101.959 267.982 98.8516 267.982C95.7442 267.982 93.2246 265.463 93.2246 262.355V240.771L49.7735 345.051L94.7949 298.229C94.8418 298.181 94.8906 298.137 94.9395 298.093L95.0039 298.033L95.1367 297.908C95.1992 297.853 95.2637 297.799 95.3281 297.747C95.4531 297.646 95.5821 297.55 95.7129 297.46L95.7813 297.418C95.9727 297.294 96.168 297.185 96.3692 297.086L96.4961 297.023C96.7227 296.919 96.9531 296.828 97.1895 296.755L97.2598 296.736L97.3828 296.702L97.5215 296.667L97.7051 296.626L97.918 296.587L98.0801 296.56C98.3223 296.526 98.5664 296.507 98.8106 296.505L98.8535 296.502L98.9024 296.506L98.9434 296.509C99.1641 296.513 99.3809 296.528 99.5996 296.558L99.7364 296.575C99.9766 296.613 100.217 296.667 100.451 296.737L100.582 296.779L100.834 296.867C100.955 296.913 101.076 296.963 101.195 297.018L101.293 297.061C101.379 297.103 101.463 297.146 101.547 297.191C101.678 297.264 101.807 297.341 101.934 297.424L102.006 297.475L102.051 297.508C102.213 297.621 102.371 297.743 102.523 297.875L102.668 298L102.752 298.073C102.828 298.147 102.902 298.224 102.975 298.303L103.082 298.42L103.17 298.522L103.229 298.6C103.371 298.774 103.498 298.957 103.615 299.144L103.695 299.274C103.77 299.398 103.838 299.523 103.9 299.651C103.951 299.752 103.998 299.854 104.047 299.966Z" fill="#1C376B"/>
</svg>
