<svg width="60" height="60" viewBox="0 0 60 60" fill="none" xmlns="http://www.w3.org/2000/svg">
<path d="M21.2895 12.3574C16.4531 10.3521 10.9091 12.6523 8.84476 17.4886C7.84211 19.8478 7.84211 22.384 8.84476 24.7431C9.78844 27.1023 11.6168 28.9307 13.976 29.8744C15.1556 30.3462 16.3942 30.5821 17.6327 30.5821C18.8713 30.5821 20.1099 30.3462 21.2305 29.8744C23.5897 28.9307 25.418 27.1023 26.3617 24.7431C28.426 19.9658 26.1258 14.3627 21.2895 12.3574ZM25.3001 24.3303C24.4154 26.3946 22.8229 27.987 20.7587 28.8127C18.6944 29.6385 16.4531 29.6385 14.3889 28.8127C12.3246 27.928 10.7321 26.3356 9.9064 24.2713C9.08068 22.207 9.08068 19.9658 9.9064 17.9015C11.6758 13.655 16.5711 11.6497 20.7587 13.4191C25.0642 15.1884 27.0695 20.0838 25.3001 24.3303Z" fill="white"/>
<path d="M19.5198 16.6628C19.5788 16.7217 19.6967 16.7217 19.7557 16.7217C19.9916 16.7217 20.2275 16.6038 20.2865 16.3679L20.9353 14.8344C21.0533 14.5395 20.9353 14.1856 20.6404 14.0677C20.3455 13.9497 19.9916 14.0677 19.8737 14.3626L19.2249 15.896C19.1069 16.1909 19.2249 16.5448 19.5198 16.6628Z" fill="white"/>
<path d="M15.8054 25.6282C15.5105 25.5103 15.1567 25.6282 15.0387 25.9231L14.3899 27.4566C14.272 27.7515 14.3899 28.1054 14.6848 28.2233C14.7438 28.2823 14.8618 28.2823 14.9207 28.2823C15.1567 28.2823 15.3926 28.1643 15.4516 27.9284L16.1003 26.3949C16.2773 26.1 16.1003 25.7462 15.8054 25.6282Z" fill="white"/>
<path d="M22.2307 22.8557C22.1128 23.1506 22.2307 23.5045 22.5256 23.6225L24.0591 24.2712C24.1181 24.3302 24.2361 24.3302 24.295 24.3302C24.531 24.3302 24.7669 24.2123 24.8259 23.9763C24.9438 23.6814 24.8259 23.3276 24.531 23.2096L22.9975 22.5608C22.7026 22.3839 22.3487 22.5608 22.2307 22.8557Z" fill="white"/>
<path d="M12.5025 19.4363C12.5615 19.4953 12.6794 19.4953 12.7384 19.4953C12.9743 19.4953 13.2102 19.3773 13.2692 19.1414C13.3872 18.8465 13.2692 18.4926 12.9743 18.3746L11.4408 17.7259C11.1459 17.6079 10.7921 17.7259 10.6741 18.0208C10.5561 18.3157 10.6741 18.6695 10.969 18.7875L12.5025 19.4363Z" fill="white"/>
<path d="M21.4658 17.4301C21.2888 17.725 21.4068 18.0789 21.7017 18.2559L22.5274 18.7277L18.6348 20.2022C18.5168 20.1432 18.4578 20.0252 18.3399 19.9663C18.045 19.8483 17.7501 19.8483 17.4552 19.9663C17.1603 20.0842 16.9244 20.3201 16.8064 20.5561C16.7474 20.674 16.7474 20.792 16.7474 20.851L11.2033 22.9742C10.9084 23.0922 10.7315 23.4461 10.8494 23.741C10.9674 23.9769 11.1443 24.0948 11.3803 24.0948C11.4392 24.0948 11.4982 24.0948 11.6162 24.0359L17.2193 21.9126C17.2782 21.9716 17.3372 21.9716 17.3962 22.0306C17.5141 22.0895 17.6911 22.0895 17.809 22.0895C18.2809 22.0895 18.6937 21.8536 18.8707 21.3818C18.8707 21.3228 18.9297 21.2638 18.9297 21.2048L22.7044 19.7893L22.3505 20.5561C22.2325 20.851 22.3505 21.2048 22.6454 21.3228C22.7044 21.3818 22.8223 21.3818 22.8813 21.3818C23.1172 21.3818 23.2942 21.2638 23.4121 21.0279L24.2968 19.0816C24.3558 18.9636 24.4148 18.9046 24.4148 18.7277C24.4148 18.4918 24.2968 18.2559 24.1199 18.1969L22.1735 17.0763C21.9966 17.0173 21.6427 17.1352 21.4658 17.4301Z" fill="white"/>
<path d="M52.843 13.5963L31.6103 5.04423C31.4923 4.98526 31.3154 4.98526 31.1384 5.04423C31.0205 5.10321 30.9025 5.22117 30.8435 5.33913L27.1868 14.422C25.9482 12.5936 24.1788 11.1781 22.1146 10.3524C19.2246 9.17281 16.0986 9.17281 13.2086 10.3524C10.3186 11.532 8.0774 13.7732 6.89781 16.6042C4.42067 22.5022 7.25169 29.3439 13.1497 31.821C14.6241 32.4108 16.0986 32.7057 17.6321 32.7057C18.3988 32.7057 19.1656 32.6467 19.9323 32.4698L14.6831 45.5633C14.6241 45.6812 14.6241 45.8582 14.6831 46.0351C14.7421 46.212 14.8601 46.271 14.978 46.33L36.2697 54.941C36.3287 54.941 36.3876 55 36.5056 55C36.7415 55 36.9774 54.882 37.0364 54.6461L53.1968 14.422C53.3148 14.0681 53.1379 13.7142 52.843 13.5963ZM13.6215 30.7594C8.31332 28.5181 5.7772 22.3843 8.01842 17.0761C9.08006 14.481 11.0854 12.4757 13.6805 11.414C16.2756 10.3524 19.1066 10.3524 21.7017 11.414C24.2968 12.4757 26.3021 14.481 27.3638 17.0761C28.4254 19.6712 28.4254 22.5022 27.3638 25.0973C25.0635 30.4645 18.9297 33.0006 13.6215 30.7594ZM36.1517 53.5845L15.9807 45.5043L18.5168 39.1935C18.5758 39.2524 18.6348 39.2524 18.6348 39.3114C18.7527 39.3704 18.8117 39.4294 18.9297 39.4294C19.1066 39.4294 19.3425 39.3114 19.4015 39.1345C19.5784 38.8396 19.5195 38.4857 19.2246 38.3088C19.1066 38.2498 18.9886 38.1318 18.9297 38.0728L21.2888 32.1749V32.1159C24.3558 31.0543 27.0099 28.813 28.3074 25.5692C28.3074 25.5102 28.3664 25.4512 28.3664 25.4512C29.8409 26.1 34.6182 28.5771 34.5003 34.1802C34.3233 40.491 38.098 44.7375 39.2187 45.8582L36.1517 53.5845ZM45.8244 29.5208C45.7064 29.4618 45.5885 29.4618 45.4115 29.4028C45.1166 29.3438 44.7627 29.5208 44.7038 29.8747C44.6448 30.1696 44.8217 30.5234 45.1756 30.5824C45.2346 30.5824 45.2936 30.5824 45.3525 30.6414L39.7495 44.6196C38.6289 43.381 36.3287 40.432 35.7978 36.2445L36.9185 35.1239C37.1544 34.8879 37.1544 34.5341 36.9185 34.2981C36.6825 34.0622 36.3287 34.0622 36.0927 34.2981L35.7389 34.652C35.7389 34.4751 35.7389 34.3571 35.7389 34.1802C35.9158 27.8104 30.4307 25.0383 28.8382 24.3306C29.546 21.7945 29.428 19.1404 28.4254 16.6632C28.3074 16.3093 28.1305 16.0144 27.9535 15.7196L31.6693 6.34179L51.8403 14.481L45.8244 29.5208Z" fill="white"/>
<path d="M42.8761 29.5209C42.2863 29.6389 41.7555 29.8748 41.1657 30.2287C40.8708 30.4056 40.7529 30.7595 40.9298 31.0544C41.0478 31.2314 41.2247 31.3493 41.4606 31.3493C41.5786 31.3493 41.6376 31.3493 41.7555 31.2903C42.2863 30.9954 42.7582 30.8185 43.23 30.7005C43.5249 30.6416 43.7608 30.2877 43.6429 29.9928C43.5249 29.6389 43.171 29.462 42.8761 29.5209Z" fill="white"/>
<path d="M26.5374 40.3734C26.3604 40.3734 26.1245 40.3734 25.9476 40.3734C25.6527 40.3734 25.2988 40.3734 24.9449 40.3145C24.65 40.3145 24.3551 40.4914 24.2961 40.8453C24.2372 41.1991 24.4731 41.4351 24.827 41.494C25.1808 41.553 25.5937 41.553 25.9476 41.553C26.1835 41.553 26.4194 41.553 26.6553 41.553C27.0092 41.553 27.2451 41.2581 27.1861 40.9042C27.1272 40.5504 26.8323 40.3734 26.5374 40.3734Z" fill="white"/>
<path d="M30.0776 39.3118C29.9007 39.4297 29.7237 39.4887 29.5468 39.5477C29.2519 39.7246 28.898 39.8426 28.5441 39.9605C28.2492 40.0785 28.0723 40.3734 28.1903 40.7273C28.2492 40.9632 28.4852 41.1401 28.7801 41.1401C28.839 41.1401 28.898 41.1401 28.957 41.1401C29.3109 41.0222 29.7237 40.8452 30.0776 40.7273C30.2546 40.6093 30.4315 40.5503 30.6674 40.4324C30.9623 40.2554 31.0803 39.9016 30.9033 39.6067C30.7264 39.2528 30.3725 39.1348 30.0776 39.3118Z" fill="white"/>
<path d="M33.2039 37.0128C32.7321 37.4257 32.3192 37.7796 31.9064 38.0745C31.6705 38.2514 31.6115 38.6643 31.7884 38.9002C31.9064 39.0771 32.0833 39.1361 32.2603 39.1361C32.3782 39.1361 32.4962 39.0771 32.6141 39.0182C33.027 38.6643 33.4988 38.3104 33.9707 37.8975C34.2066 37.6616 34.2656 37.3077 34.0297 37.0718C33.8527 36.8359 33.4988 36.8359 33.2039 37.0128Z" fill="white"/>
<path d="M39.1618 31.5268C38.7489 31.8806 38.2771 32.2345 37.8052 32.6474C37.5693 32.8833 37.5693 33.2372 37.7462 33.4731C37.8642 33.591 38.0411 33.65 38.1591 33.65C38.2771 33.65 38.454 33.591 38.572 33.4731C39.0438 33.0602 39.4567 32.7064 39.8695 32.4115C40.1054 32.2345 40.1644 31.8217 39.9875 31.5857C39.8105 31.4088 39.3977 31.3498 39.1618 31.5268Z" fill="white"/>
<path d="M22.7614 39.9006C22.2306 39.7237 21.6998 39.5467 21.228 39.3108C20.9331 39.1929 20.5792 39.3108 20.4612 39.6057C20.3433 39.9006 20.4612 40.2545 20.7561 40.3725C21.2869 40.6084 21.8767 40.8443 22.4075 41.0212C22.4665 41.0212 22.5255 41.0212 22.5845 41.0212C22.8204 41.0212 23.0563 40.8443 23.1743 40.6084C23.2333 40.3135 23.0563 39.9596 22.7614 39.9006Z" fill="white"/>
<path d="M34.6172 19.4355C34.6172 21.3228 36.1507 22.8563 38.038 22.8563C39.9254 22.8563 41.4588 21.3228 41.4588 19.4355C41.4588 17.5481 39.9254 16.0146 38.038 16.0146C36.1507 16.0146 34.6172 17.5481 34.6172 19.4355ZM38.038 17.1942C39.2766 17.1942 40.2792 18.1969 40.2792 19.4355C40.2792 20.674 39.2766 21.6767 38.038 21.6767C36.7994 21.6767 35.7968 20.674 35.7968 19.4355C35.7968 18.1969 36.7994 17.1942 38.038 17.1942Z" fill="white"/>
<path d="M31.5508 19.4365C31.5508 19.7904 31.7867 20.0263 32.1406 20.0263H33.3202C33.674 20.0263 33.91 19.7904 33.91 19.4365C33.91 19.0826 33.674 18.8467 33.3202 18.8467H32.1406C31.7867 18.8467 31.5508 19.1416 31.5508 19.4365Z" fill="white"/>
<path d="M34.3822 21.3806C34.2052 21.0857 33.8514 20.9677 33.5565 21.1447L32.4948 21.6755C32.1999 21.8524 32.082 22.2063 32.2589 22.5012C32.3769 22.6781 32.5538 22.7961 32.7897 22.7961C32.9077 22.7961 32.9667 22.7961 33.0846 22.7371L34.1463 22.2063C34.3822 22.0294 34.5001 21.6755 34.3822 21.3806Z" fill="white"/>
<path d="M34.8547 23.0331L34.206 24.0357C34.029 24.3306 34.088 24.6845 34.3829 24.8614C34.5009 24.9204 34.6188 24.9794 34.7368 24.9794C34.9137 24.9794 35.0907 24.8614 35.2086 24.7435L35.8574 23.7408C36.0343 23.4459 35.9754 23.092 35.6805 22.9151C35.4445 22.6792 35.0317 22.7382 34.8547 23.0331Z" fill="white"/>
<path d="M37.923 25.3921L38.041 24.2125C38.0999 23.9176 37.864 23.6227 37.5101 23.5637C37.2152 23.5047 36.9203 23.7407 36.8614 24.0945L36.7434 25.2741C36.6844 25.569 36.9203 25.8639 37.2742 25.9229H37.3332C37.6281 25.9229 37.923 25.687 37.923 25.3921Z" fill="white"/>
<path d="M40.2787 23.6242C40.1608 23.3293 39.8069 23.1524 39.512 23.2703C39.2171 23.3883 39.0991 23.7422 39.2171 24.0371L39.6299 25.1577C39.7479 25.3936 39.9248 25.5116 40.1608 25.5116C40.2197 25.5116 40.2787 25.5116 40.3967 25.4526C40.6916 25.3346 40.8685 24.9808 40.7505 24.6859L40.2787 23.6242Z" fill="white"/>
<path d="M42.1101 23.7401C42.228 23.8581 42.346 23.8581 42.5229 23.8581C42.6999 23.8581 42.8768 23.7991 42.9948 23.6811C43.2307 23.4452 43.1717 23.0913 42.9358 22.8554L42.0511 22.0887C41.8152 21.8527 41.4613 21.9117 41.2254 22.1476C40.9895 22.3836 41.0484 22.7374 41.2844 22.9734L42.1101 23.7401Z" fill="white"/>
<path d="M43.9377 20.2017L42.7581 19.9068C42.4632 19.8478 42.1093 20.0248 42.0504 20.3197C41.9914 20.6146 42.1683 20.9684 42.4632 21.0274L43.6428 21.3223C43.7018 21.3223 43.7608 21.3223 43.7608 21.3223C44.0557 21.3223 44.2916 21.1454 44.3506 20.8505C44.4095 20.6146 44.2326 20.2607 43.9377 20.2017Z" fill="white"/>
<path d="M42.0505 18.3735C42.1095 18.6094 42.3454 18.7864 42.6403 18.7864C42.6993 18.7864 42.7583 18.7864 42.8173 18.7864L43.9379 18.4915C44.2328 18.4325 44.4687 18.0786 44.3507 17.7837C44.2917 17.4888 43.9379 17.2529 43.643 17.3709L42.5224 17.6658C42.1095 17.7247 41.9326 18.0786 42.0505 18.3735Z" fill="white"/>
<path d="M41.5204 16.8406C41.6384 16.8406 41.8153 16.7816 41.9333 16.6637L42.818 15.838C43.0539 15.602 43.0539 15.2482 42.877 15.0123C42.641 14.7763 42.2872 14.7763 42.0512 14.9533L41.1666 15.779C40.9306 16.0149 40.9306 16.3688 41.1076 16.6047C41.1665 16.7816 41.3435 16.8406 41.5204 16.8406Z" fill="white"/>
<path d="M39.3968 15.5428C39.4558 15.5428 39.5148 15.6018 39.5738 15.6018C39.8097 15.6018 40.0456 15.4249 40.1046 15.1889L40.5174 14.0683C40.6354 13.7734 40.4584 13.4196 40.1635 13.3016C39.8687 13.1836 39.5148 13.3606 39.3968 13.6555L38.984 14.7761C38.925 15.071 39.1019 15.4249 39.3968 15.5428Z" fill="white"/>
<path d="M37.3295 15.365H37.3885C37.6834 15.306 37.9193 15.0111 37.8604 14.7162L37.6834 13.5366C37.6244 13.2417 37.3295 13.0058 37.0346 13.0648C36.7397 13.1237 36.5038 13.4186 36.5628 13.7135L36.7397 14.8931C36.7987 15.1291 37.0346 15.365 37.3295 15.365Z" fill="white"/>
<path d="M34.7364 15.9563C34.8544 16.1332 35.0313 16.1922 35.2083 16.1922C35.3262 16.1922 35.4442 16.1332 35.5621 16.0742C35.798 15.8973 35.857 15.4844 35.6801 15.2485L34.9723 14.3048C34.7954 14.0689 34.3825 14.0099 34.1466 14.1869C33.9107 14.3638 33.8517 14.7767 34.0287 15.0126L34.7364 15.9563Z" fill="white"/>
<path d="M32.4348 17.3725L33.4965 17.9033C33.5554 17.9623 33.6734 17.9623 33.7324 17.9623C33.9683 17.9623 34.1452 17.8443 34.2632 17.6084C34.3812 17.3135 34.2632 16.9596 33.9683 16.8416L32.9067 16.3108C32.6118 16.1929 32.2579 16.3108 32.1399 16.6057C32.022 16.9006 32.1399 17.2545 32.4348 17.3725Z" fill="white"/>
</svg>
