<svg width="60" height="60" viewBox="0 0 60 60" fill="none" xmlns="http://www.w3.org/2000/svg">
<path d="M23.6501 21.319C22.6778 22.2912 22.6778 23.819 23.6501 24.7912C24.1362 25.2773 24.7612 25.4857 25.3862 25.4857C26.0112 25.4857 26.6362 25.2773 27.1223 24.7912C28.0945 23.819 28.0945 22.2912 27.1223 21.319C26.1501 20.3468 24.6223 20.3468 23.6501 21.319ZM26.1501 23.819C25.7334 24.2357 25.039 24.2357 24.6223 23.819C24.2056 23.4023 24.2056 22.7079 24.6223 22.2912C24.8306 22.0829 25.1084 22.0135 25.3862 22.0135C25.664 22.0135 25.9417 22.0829 26.1501 22.2912C26.5667 22.7079 26.5667 23.4023 26.1501 23.819Z" fill="white"/>
<path d="M47.7467 45.4157C46.7745 46.3879 46.7745 47.9157 47.7467 48.8879C48.2329 49.374 48.8579 49.5824 49.4829 49.5824C50.1079 49.5824 50.7329 49.374 51.219 48.8879C52.1912 47.9157 52.1912 46.3879 51.219 45.4157C50.2467 44.4435 48.719 44.4435 47.7467 45.4157ZM50.2467 47.8462C49.8301 48.2629 49.1356 48.2629 48.719 47.8462C48.3023 47.4296 48.3023 46.7351 48.719 46.3185C48.9273 46.1101 49.2051 46.0407 49.4829 46.0407C49.7606 46.0407 50.0384 46.1101 50.2467 46.3185C50.594 46.8046 50.594 47.4296 50.2467 47.8462Z" fill="white"/>
<path d="M54.8316 42.2222L54.6233 13.3333C54.6233 13.1944 54.5538 13.0556 54.4844 12.9861L49.6233 5.34722C49.4844 5.13889 49.2066 5 48.9288 5C48.651 5.06944 48.4427 5.20833 48.3733 5.48611C48.1649 6.18056 44.276 21.25 46.776 34.1667L29.4149 16.8056C27.1233 14.5139 23.4427 14.5139 21.151 16.8056L19.0677 18.8889C17.9566 20 17.3316 21.4583 17.3316 23.0556C17.3316 24.6528 17.9566 26.1111 19.0677 27.2222L19.2066 27.3611L5.31771 41.25C5.24826 41.3194 5.17882 41.4583 5.10938 41.5972L3.02604 50.4167C2.9566 50.625 3.02604 50.9028 3.23438 51.1111C3.37326 51.25 3.51215 51.3194 3.72049 51.3194C3.78993 51.3194 3.85938 51.3194 3.92882 51.3194C4.48438 51.1806 16.8455 47.3611 23.7205 31.9444L29.0677 37.2917C29.4844 37.7083 29.6927 38.1944 29.7622 38.6806C29.8316 39.0972 29.6927 39.5139 29.4149 39.7917C29.1372 40.0694 28.7899 40.1389 28.3038 40.1389C27.8177 40.0694 27.3316 39.8611 26.9149 39.4444C26.2899 38.8194 25.526 38.4028 24.6927 38.3333C23.8594 38.2639 23.026 38.4722 22.4705 39.0278C21.9149 39.5833 21.6372 40.3472 21.776 41.25C21.8455 42.0833 22.2622 42.8472 22.8872 43.4722C23.3038 43.8889 23.5122 44.375 23.5816 44.8611C23.651 45.2778 23.5122 45.6944 23.2344 45.9722C22.9566 46.25 22.6094 46.3194 22.1233 46.3194C21.6372 46.25 21.151 46.0417 20.7344 45.625C20.1094 45 19.3455 44.5833 18.5122 44.5139C17.6788 44.4444 16.8455 44.6528 16.2899 45.2083C15.7344 45.7639 15.4566 46.5278 15.5955 47.4306C15.6649 48.2639 16.0816 49.0278 16.7066 49.6528C17.1233 50.0694 17.3316 50.5556 17.401 51.0417C17.4705 51.4583 17.3316 51.875 17.0538 52.1528C16.776 52.4306 16.4288 52.5 15.9427 52.5C15.4566 52.4306 14.9705 52.2222 14.5538 51.8056C14.276 51.5278 13.8594 51.5278 13.5816 51.8056C13.3038 52.0833 13.3038 52.5 13.5816 52.7778C14.2066 53.4028 14.9705 53.8194 15.8038 53.8889C15.9427 53.8889 16.0122 53.8889 16.151 53.8889C16.8455 53.8889 17.5399 53.6111 18.026 53.125C18.5816 52.5694 18.8594 51.8056 18.7205 50.9028C18.651 50.0694 18.2344 49.3056 17.6094 48.6806C17.1927 48.2639 16.9844 47.7778 16.9149 47.2917C16.8455 46.875 16.9844 46.4583 17.2622 46.1806C17.5399 45.9028 17.8872 45.8333 18.3733 45.8333C18.8594 45.9028 19.3455 46.1111 19.7622 46.5278C20.3872 47.1528 21.151 47.5694 21.9844 47.6389C22.1233 47.6389 22.1927 47.6389 22.3316 47.6389C23.026 47.6389 23.7205 47.3611 24.2066 46.875C24.7622 46.3194 25.0399 45.5556 24.901 44.6528C24.8316 43.8194 24.4149 43.0556 23.7899 42.4306C23.3733 42.0139 23.1649 41.5278 23.0955 41.0417C23.026 40.625 23.1649 40.2083 23.4427 39.9306C23.7205 39.6528 24.0677 39.5833 24.5538 39.5833C25.0399 39.6528 25.526 39.8611 25.9427 40.2778C26.5677 40.9028 27.3316 41.3194 28.1649 41.3889C28.3038 41.3889 28.3733 41.3889 28.5122 41.3889C29.2066 41.3889 29.901 41.1111 30.3872 40.625C30.7344 40.2778 31.0122 39.7917 31.0816 39.2361L45.1094 53.2639C46.2205 54.375 47.7483 55 49.276 55C50.8038 55 52.2622 54.4444 53.4427 53.2639L55.526 51.1806C56.6372 50.0694 57.2622 48.6111 57.2622 47.0139C57.2622 45.4167 56.6372 43.9583 55.526 42.8472L54.8316 42.2222ZM49.3455 7.5L53.2344 13.6111L53.4427 40.8333L48.651 36.0417C45.8733 25.4167 48.3733 12.0139 49.3455 7.5ZM22.6094 30.9028C17.2622 43.2639 7.9566 48.0556 4.69271 49.4444L6.42882 42.0833L20.1788 28.3333L22.6788 30.8333C22.6788 30.8333 22.6094 30.9028 22.6094 30.9028ZM54.5538 50.2778L52.4705 52.3611C50.7344 54.0972 47.8872 54.0972 46.151 52.3611L20.0399 26.1806C19.2066 25.3472 18.7205 24.2361 18.7205 23.0556C18.7205 21.875 19.2066 20.7639 20.0399 19.9306L22.1233 17.8472C23.026 16.9444 24.1372 16.5278 25.2483 16.5278C26.3594 16.5278 27.5399 16.9444 28.3733 17.8472L54.5538 44.0278C55.3872 44.8611 55.8733 45.9722 55.8733 47.1528C55.8733 48.3333 55.3872 49.375 54.5538 50.2778Z" fill="white"/>
</svg>
