<svg width="60" height="60" viewBox="0 0 60 60" fill="none" xmlns="http://www.w3.org/2000/svg">
<path d="M27.8309 12.0183C27.8144 12.0314 27.8067 12.0502 27.7919 12.0646L17.8401 10.9099C12.5907 10.3008 7.82438 14.0786 7.21503 19.3304L6.79815 22.9233C6.04771 23.0484 5.43502 23.6493 5.34305 24.4419L3.92931 36.6265C3.83734 37.4192 4.29617 38.1444 4.99805 38.4379L4.47862 42.9148C3.86927 48.1666 7.64394 52.9353 12.8933 53.5444L16.1391 53.921C19.6601 54.3295 23.1017 52.7725 25.121 49.8568L28.8951 44.4079L29.5748 45.2666C30.0702 45.892 30.9073 46.0803 31.6111 45.7916L34.4071 49.3236C35.9967 51.3311 38.2723 52.5993 40.8151 52.8944C43.3582 53.1894 45.8638 52.476 47.8705 50.8857L50.4322 48.8555C53.2115 46.653 54.5441 43.1143 53.9119 39.6283L49.3751 14.583C49.1273 13.2137 48.2966 12.2049 47.4932 11.2295C47.3415 11.0453 47.1888 10.8603 47.0398 10.6714L46.2396 9.66052C44.6345 7.63257 42.4426 6.30719 40.0679 5.92759C37.625 5.5376 35.184 6.19103 33.1948 7.76723L27.8309 12.0183ZM35.4968 42.7309C35.9681 42.1089 35.9857 41.2255 35.48 40.5871L33.3796 37.9337L39.6125 28.9347C40.4052 27.7909 40.5312 26.4866 40.6517 25.2319C40.6746 24.9942 40.6976 24.7559 40.7253 24.5169L40.874 23.2357C41.4297 18.4461 38.8561 14.3509 34.725 13.0422L35.6233 12.3302C36.5816 11.5704 37.7776 11.2297 38.9919 11.3706C40.2061 11.5115 41.2924 12.117 42.0512 13.076L43.5746 15.0003C44.1913 15.7793 44.611 16.7083 44.79 17.696L49.0912 39.2864C49.5524 41.8302 48.9138 43.5222 46.8886 45.1277L44.7329 46.8358C43.7505 47.6144 42.5236 47.964 41.2788 47.8195C40.0337 47.6751 38.9195 47.0539 38.1412 46.0709L35.4968 42.7309ZM17.6948 12.1617L32.8443 13.9195C37.2556 14.4313 40.1694 18.3741 39.6221 23.0905L39.4735 24.3717C39.4448 24.6186 39.4208 24.8655 39.3974 25.1105C39.2855 26.2591 39.182 27.3429 38.5763 28.2173L32.562 36.9008L30.9956 34.922L35.2118 28.6026C35.895 27.6157 36.3294 26.4643 36.4677 25.2724L36.7506 22.8335C37.1218 19.6349 34.8231 16.731 31.6263 16.3601L17.9417 14.7723C14.4117 14.3628 11.2064 16.903 10.7966 20.4354L10.4673 23.2728L8.05872 22.9934L8.46687 19.4756C8.99615 14.9139 13.1358 11.6328 17.6948 12.1617ZM25.779 40.4713L21.9531 46.206C20.4819 48.3305 18.8347 49.0754 16.2684 48.7776L13.5374 48.4607C10.9674 48.1625 9.11907 45.8276 9.4175 43.2555L9.90868 39.0222C10.681 38.9155 11.3174 38.3042 11.4113 37.4946L12.825 25.31C12.9189 24.5005 12.4395 23.7597 11.7121 23.4791L12.0484 20.5807C12.3781 17.739 14.9566 15.6947 17.7965 16.0242L22.1409 16.5283L21.2393 17.2432C19.1675 18.8848 17.9569 21.216 17.6739 23.6555C17.3909 26.0944 18.0361 28.6416 19.676 30.7138L21.9198 33.5485C21.7452 33.7929 21.6321 34.0713 21.5984 34.362C21.5466 34.8082 21.6646 35.2735 21.9641 35.652L25.779 40.4713ZM20.6644 29.9315C17.8138 26.3312 18.4241 21.0819 22.022 18.231L23.8985 16.7433C23.9021 16.7405 23.9035 16.7361 23.9071 16.7332L27.5109 17.1513L24.0403 19.9018C22.6479 21.0058 21.8338 22.5734 21.6434 24.214C21.4532 25.854 21.8866 27.5669 22.9893 28.9604L24.7618 31.1995L22.8607 32.7063L20.6644 29.9315ZM27.8693 30.9725C27.5789 30.6055 27.1628 30.3739 26.698 30.32C26.3817 30.2833 26.071 30.3382 25.7876 30.4645L23.9776 28.1781C22.2023 25.9353 22.5823 22.6652 24.8233 20.8896L29.2812 17.3567L31.4811 17.612C33.9875 17.9028 35.7899 20.1797 35.4988 22.6883L35.2158 25.1271C35.1013 26.1143 34.7416 27.0681 34.1697 27.8944L30.1737 33.8837L27.8693 30.9725ZM5.61287 37.3168C5.34361 37.2856 5.14987 37.0413 5.18115 36.7718L6.59488 24.5872C6.62616 24.3176 6.87068 24.1242 7.13994 24.1555L11.1415 24.6197C11.4107 24.651 11.6045 24.8952 11.5732 25.1648L10.1595 37.3494C10.1282 37.619 9.88365 37.8124 9.6144 37.7811L5.61287 37.3168ZM24.0848 49.1394C22.3312 51.6715 19.3424 53.024 16.2843 52.6691L13.0386 52.2925C8.47959 51.7636 5.20117 47.6217 5.73045 43.06L6.24116 38.6584L8.64978 38.9379L8.16567 43.1103C7.78717 46.3725 10.1317 49.3343 13.3921 49.7126L16.1232 50.0294C19.1822 50.3844 21.2354 49.4555 22.9953 46.9142L26.6009 41.5096L28.0775 43.375L24.0848 49.1394ZM30.5629 44.4842L22.9525 34.8697C22.7842 34.6569 22.8196 34.3469 23.0327 34.1784L26.1914 31.6748C26.2941 31.5932 26.4225 31.5567 26.5527 31.5718C26.6829 31.5869 26.7996 31.6519 26.8809 31.7548L34.4916 41.3694C34.5759 41.4758 34.609 41.6067 34.5945 41.732C34.58 41.8567 34.5178 41.9764 34.4114 42.0607L31.253 44.5643C31.0406 44.7323 30.731 44.6964 30.5629 44.4842ZM45.2515 10.4429L46.0514 11.4537C46.2059 11.6488 46.3634 11.8399 46.5203 12.0304C47.2533 12.9207 47.9456 13.7612 48.135 14.8071L52.6717 39.8524C53.2204 42.8839 52.0627 45.9554 49.6492 47.8677L47.0875 49.8978C45.3447 51.2796 43.1688 51.8988 40.9604 51.6425C38.7522 51.3863 36.7756 50.2854 35.3955 48.5413L32.6462 45.0683L34.5472 43.5615L37.1531 46.8533C38.1405 48.1003 39.5538 48.8881 41.1336 49.0714C42.713 49.2546 44.2692 48.8114 45.5156 47.8236L47.6713 46.1155C50.0844 44.2019 50.8798 42.0926 50.3292 39.0515L46.0281 17.4612C45.8144 16.2805 45.3077 15.1593 44.563 14.218L43.0396 12.2937C42.0717 11.0713 40.6857 10.2984 39.1371 10.1188C37.5885 9.93908 36.0625 10.3741 34.8403 11.3424L33.137 12.6923C33.0871 12.6857 33.0398 12.6735 32.9895 12.6676L29.5453 12.268L33.9778 8.75508C35.6868 7.40034 37.7789 6.83838 39.869 7.17196C41.9311 7.50166 43.8428 8.66321 45.2515 10.4429Z" fill="white"/>
<path d="M9.19496 29.3793L9.3473 28.0663C9.38744 27.7204 9.13966 27.4079 8.794 27.3678C8.44834 27.3277 8.13561 27.5751 8.09546 27.9211L7.94313 29.2341C7.90299 29.58 8.15076 29.8925 8.49642 29.9326C8.84208 29.9727 9.15482 29.7253 9.19496 29.3793Z" fill="white"/>
<path d="M8.66859 33.9233L8.82093 32.6103C8.86107 32.2643 8.6133 31.9519 8.26764 31.9118C7.92198 31.8716 7.60924 32.1191 7.5691 32.465L7.41676 33.778C7.37662 34.124 7.62439 34.4364 7.97005 34.4765C8.31571 34.5167 8.62845 34.2692 8.66859 33.9233Z" fill="white"/>
<path d="M28.2061 36.4535L27.3851 35.4166C27.1693 35.1438 26.7729 35.0978 26.5 35.3139C26.3636 35.422 26.2839 35.5751 26.2653 35.7352C26.2467 35.8954 26.2893 36.0626 26.3973 36.199L27.2183 37.2359C27.4341 37.5087 27.8305 37.5547 28.1034 37.3386C28.3763 37.1225 28.4222 36.7264 28.2061 36.4535Z" fill="white"/>
<path d="M31.047 40.0398L30.2262 39.0036C30.0101 38.7307 29.614 38.6848 29.3412 38.9009C29.2047 39.009 29.125 39.162 29.1064 39.3222C29.0879 39.4823 29.1304 39.6495 29.2385 39.786L30.0592 40.8222C30.2753 41.0951 30.6714 41.141 30.9443 40.9249C31.2172 40.7088 31.2631 40.3127 31.047 40.0398Z" fill="white"/>
</svg>
