<svg width="60" height="60" viewBox="0 0 60 60" fill="none" xmlns="http://www.w3.org/2000/svg">
<path d="M33.8416 33.0049H21.2385C20.8889 33.0049 20.6055 33.2883 20.6055 33.6379C20.6055 33.9875 20.8889 34.271 21.2385 34.271H33.8416C34.1912 34.271 34.4746 33.9875 34.4746 33.6379C34.4746 33.2883 34.1912 33.0049 33.8416 33.0049Z" fill="white"/>
<path d="M33.8416 37.7275H21.2385C20.8889 37.7275 20.6055 38.011 20.6055 38.3606C20.6055 38.7102 20.8889 38.9936 21.2385 38.9936H33.8416C34.1912 38.9936 34.4746 38.7102 34.4746 38.3606C34.4746 38.011 34.1912 37.7275 33.8416 37.7275Z" fill="white"/>
<path d="M33.6043 18.9785H21.0012C20.6516 18.9785 20.3682 19.262 20.3682 19.6116C20.3682 19.9612 20.6516 20.2446 21.0012 20.2446H33.6043C33.9539 20.2446 34.2373 19.9612 34.2373 19.6116C34.2373 19.262 33.9539 18.9785 33.6043 18.9785Z" fill="white"/>
<path d="M33.6043 14.2568H21.0012C20.6516 14.2568 20.3682 14.5403 20.3682 14.8899C20.3682 15.2395 20.6516 15.5229 21.0012 15.5229H33.6043C33.9539 15.5229 34.2373 15.2395 34.2373 14.8899C34.2373 14.5403 33.9539 14.2568 33.6043 14.2568Z" fill="white"/>
<path d="M24.7324 55.6435H30.1098C30.4594 55.6435 30.7429 55.36 30.7429 55.0104C30.7429 54.6608 30.4594 54.3774 30.1098 54.3774H30.4445V43.8923H43.0006C43.1737 43.8923 43.339 43.8215 43.4586 43.6963L50.3649 36.4596C50.5983 36.2151 50.5983 35.83 50.3649 35.5855L43.4586 28.3487C43.339 28.2235 43.1737 28.1528 43.0006 28.1528H30.4445V25.0979H38.3167C38.6663 25.0979 38.9498 24.8144 38.9498 24.4649V9.9914C38.9498 9.6418 38.6663 9.35836 38.3167 9.35836H30.4445V7.73031C30.4445 6.22467 29.2198 5 27.7142 5H27.3655C25.8599 5 24.6352 6.22467 24.6352 7.73031V9.35836H17.5394C17.3663 9.35836 17.2009 9.42914 17.0813 9.55433L10.175 16.7911C9.94166 17.0356 9.94166 17.4207 10.175 17.6652L17.0813 24.9019C17.2009 25.0271 17.3663 25.0979 17.5394 25.0979H24.6352V28.1528H11.4615C11.1119 28.1528 10.8285 28.4362 10.8285 28.7858V43.2593C10.8285 43.6089 11.1119 43.8923 11.4615 43.8923H24.6352V54.3774H24.7324C24.3828 54.3774 24.0994 54.6608 24.0994 55.0104C24.0994 55.36 24.3828 55.6435 24.7324 55.6435ZM25.9013 7.73031C25.9013 6.92293 26.5581 6.26609 27.3655 6.26609H27.7142C28.5215 6.26609 29.1784 6.92293 29.1784 7.73031V9.35836H25.9013V7.73031ZM11.5082 17.2281L17.8102 10.6244H37.6837V23.8318H17.8102L11.5082 17.2281ZM25.9013 25.0979H29.1784V28.1528H25.9013V25.0979ZM12.0946 29.4188H42.7298L49.0318 36.0225L42.7298 42.6262H12.0946V29.4188ZM25.9013 43.8923H29.1784V54.3774H25.9013V43.8923Z" fill="white"/>
</svg>
