<svg width="33" height="32" viewBox="0 0 33 32" fill="none" xmlns="http://www.w3.org/2000/svg">
<path fill-rule="evenodd" clip-rule="evenodd" d="M6.00186 0H26.0081C29.3236 0 32.0099 2.68554 32.0099 6V26C32.0099 29.3145 29.3236 32 26.0081 32H6.00186C2.68637 32 0 29.3145 0 26V6C0 2.68554 2.68637 0 6.00186 0ZM22.1997 17.2336H25.1951L25.6026 13.4994H22.1997L22.2058 11.4034C22.2058 10.4065 22.2994 9.87358 23.73 9.87358H25.8931V6.1542H22.1689C18.4939 6.1542 17.1987 8.00528 17.1975 11.1228V13.5007H15.2572V17.2336H17.1975V28.3154H22.1997V17.2336Z" fill="white"/>
</svg>
