<?xml version="1.0" encoding="utf-8"?>
<!-- Generator: Adobe Illustrator 24.2.0, SVG Export Plug-In . SVG Version: 6.00 Build 0)  -->
<svg version="1.1" id="Camada_1" xmlns="http://www.w3.org/2000/svg" xmlns:xlink="http://www.w3.org/1999/xlink" x="0px" y="0px"
	 viewBox="0 0 32 32" style="enable-background:new 0 0 32 32;" xml:space="preserve">
<style type="text/css">
	.st0{fill:#FFFFFF;}
</style>
<g>
	<path class="st0" d="M20.08,9.51c-1.38-0.21-6.55-0.19-7.99-0.03c-1.42,0.16-2.36,1.04-2.57,2.44c-0.23,1.49-0.18,7.07,0,8.19
		c0.19,1.17,0.86,1.97,2.02,2.29c1.21,0.34,7.06,0.26,8.37,0.12c1.43-0.16,2.37-1.03,2.58-2.45c0.22-1.43,0.18-6.64,0.03-7.97
		C22.37,10.67,21.49,9.73,20.08,9.51z M16,20.16c-2.3,0-4.16-1.87-4.16-4.16c0-2.3,1.87-4.16,4.16-4.16c2.3,0,4.16,1.87,4.16,4.16
		C20.16,18.3,18.3,20.16,16,20.16z M20.32,12.65c-0.54,0-0.97-0.44-0.97-0.98c0-0.54,0.44-0.97,0.98-0.97
		c0.54,0,0.97,0.44,0.97,0.98C21.3,12.22,20.86,12.66,20.32,12.65z"/>
	<path class="st0" d="M16.02,13.31c-1.49-0.01-2.7,1.18-2.72,2.67c-0.01,1.49,1.18,2.7,2.67,2.72c1.49,0.01,2.7-1.18,2.72-2.67
		C18.7,14.54,17.51,13.32,16.02,13.31z"/>
	<path class="st0" d="M24.28,0H7.72C3.46,0,0,3.46,0,7.72v16.55C0,28.54,3.46,32,7.72,32h16.55c4.27,0,7.72-3.46,7.72-7.72V7.72
		C32,3.46,28.54,0,24.28,0z M23.87,20.69c-0.49,1.85-1.69,2.94-3.56,3.25c-1.41,0.23-7.7,0.27-8.98-0.06
		c-1.85-0.48-2.95-1.67-3.26-3.54c-0.23-1.37-0.3-7.73,0.08-9.11c0.5-1.8,1.69-2.86,3.51-3.15c1.59-0.26,6.12-0.19,8.03-0.09
		c1.12,0.06,2.14,0.41,2.98,1.21c0.79,0.76,1.2,1.7,1.31,2.77C24.11,13.24,24.24,19.27,23.87,20.69z"/>
</g>
</svg>
