<svg width="33" height="32" viewBox="0 0 33 32" fill="none" xmlns="http://www.w3.org/2000/svg">
<path fill-rule="evenodd" clip-rule="evenodd" d="M6 0H26.0078C29.3242 0 32.0117 2.68555 32.0117 6V26C32.0117 29.3145 29.3242 32 26.0078 32H6C2.6875 32 0 29.3145 0 26V6C0 2.68555 2.6875 0 6 0ZM23.9648 12.5801C23.9648 18.0029 19.8359 24.2573 12.2891 24.2573C11.3594 24.2573 10.4531 24.1475 9.58594 23.9404C8.29297 23.6323 7.08594 23.1094 6 22.4136C6.32031 22.4517 6.64844 22.4707 6.98047 22.4707C8.90234 22.4707 10.6719 21.8149 12.0742 20.7139C10.2812 20.6807 8.76562 19.4937 8.24219 17.8633C8.49219 17.9111 8.75 17.937 9.01172 17.937C9.38672 17.937 9.75 17.8867 10.0938 17.793C8.21875 17.417 6.80469 15.7573 6.80469 13.7695V13.7173C7.35547 14.0249 7.98828 14.2095 8.66406 14.2305C7.5625 13.4951 6.83594 12.2378 6.83594 10.8145C6.83594 10.0625 7.03906 9.35791 7.39062 8.75146C9.41406 11.2349 12.4414 12.8677 15.8516 13.0396C15.7812 12.7388 15.7422 12.4258 15.7422 12.1035C15.7422 9.83789 17.582 8 19.8477 8C21.0273 8 22.0938 8.49902 22.8438 9.29639C23.7773 9.1123 24.6562 8.77051 25.4492 8.30029C25.1406 9.25879 24.4922 10.0625 23.6445 10.5708C24.4727 10.4712 25.2656 10.2515 26 9.92432C25.4492 10.7471 24.7539 11.4702 23.9531 12.0493L23.9648 12.5801Z" fill="white"/>
</svg>
