<?xml version="1.0" encoding="utf-8"?>
<!-- Generator: Adobe Illustrator 24.2.0, SVG Export Plug-In . SVG Version: 6.00 Build 0)  -->
<svg version="1.1" id="Camada_1" xmlns="http://www.w3.org/2000/svg" xmlns:xlink="http://www.w3.org/1999/xlink" x="0px" y="0px"
	 viewBox="0 0 32 32" style="enable-background:new 0 0 32 32;" xml:space="preserve">
<style type="text/css">
	.st0{fill:#FFFFFF;}
</style>
<g>
	<path class="st0" d="M13.51,19.05c2.1-1.09,4.17-2.16,6.28-3.26c-2.11-1.1-4.18-2.18-6.28-3.28C13.51,14.7,13.51,16.86,13.51,19.05
		z"/>
	<path class="st0" d="M24.28,0H7.72C3.46,0,0,3.46,0,7.72v16.55C0,28.54,3.46,32,7.72,32h16.55c4.27,0,7.72-3.46,7.72-7.72V7.72
		C32,3.46,28.54,0,24.28,0z M25.46,21.46c-0.23,0.5-0.61,0.85-1.09,1.1c-1.3,0.68-14.68,0.67-16.39,0.11
		c-0.76-0.25-1.28-0.75-1.55-1.51c-0.67-1.85-0.87-9.57,0.42-11.1c0.44-0.52,1.01-0.82,1.69-0.9c3.48-0.38,14.26-0.32,15.5,0.13
		c0.73,0.26,1.24,0.74,1.52,1.47C26.29,12.67,26.32,19.62,25.46,21.46z"/>
</g>
</svg>
