<svg width="46" height="45" viewBox="0 0 46 45" fill="none" xmlns="http://www.w3.org/2000/svg">
<path d="M21.0615 8.18843C21.0484 8.19881 21.0422 8.21376 21.0305 8.22514L13.1339 7.30894C8.96866 6.82565 5.18671 9.82321 4.7032 13.9904L4.37242 16.8414C3.77695 16.9406 3.2908 17.4174 3.21782 18.0463L2.09605 27.7146C2.02307 28.3435 2.38715 28.9189 2.94407 29.1519L2.53191 32.7041C2.04841 36.8713 5.04353 40.6552 9.20881 41.1385L11.7842 41.4373C14.5781 41.7615 17.3089 40.5261 18.9112 38.2125L21.9059 33.8889L22.4452 34.5702C22.8383 35.0665 23.5026 35.2159 24.061 34.9869L26.2796 37.7894C27.5409 39.3823 29.3465 40.3886 31.3642 40.6227C33.3821 40.8569 35.3702 40.2907 36.9624 39.0289L38.9951 37.418C41.2004 35.6704 42.2578 32.8625 41.7562 30.0964L38.1563 10.2235C37.9597 9.137 37.3005 8.33647 36.6631 7.56256C36.5427 7.41636 36.4216 7.2696 36.3033 7.11972L35.6684 6.31759C34.3947 4.70846 32.6555 3.65679 30.7713 3.35558C28.8329 3.04614 26.896 3.56462 25.3176 4.8153L21.0615 8.18843ZM27.1442 32.5582C27.5181 32.0647 27.5321 31.3638 27.1308 30.8572L25.4642 28.7518L30.4099 21.6113C31.0389 20.7036 31.1388 19.6687 31.2345 18.6732C31.2527 18.4845 31.2709 18.2955 31.2929 18.1058L31.4109 17.0892C31.8518 13.2888 29.8097 10.0393 26.5317 9.00089L27.2446 8.43593C28.0049 7.83304 28.954 7.5627 29.9175 7.67449C30.8809 7.78628 31.7429 8.26674 32.345 9.02771L33.5537 10.5546C34.0431 11.1727 34.3761 11.9098 34.5182 12.6936L37.931 29.8251C38.297 31.8435 37.7903 33.1861 36.1833 34.4601L34.4728 35.8154C33.6933 36.4332 32.7198 36.7106 31.7321 36.596C30.7441 36.4813 29.86 35.9885 29.2424 35.2085L27.1442 32.5582ZM13.0187 8.30224L25.0395 9.69697C28.5398 10.1031 30.8518 13.2316 30.4176 16.974L30.2996 17.9906C30.2769 18.1865 30.2578 18.3824 30.2392 18.5768C30.1504 19.4882 30.0683 20.3482 29.5877 21.042L24.8155 27.9322L23.5726 26.362L26.9181 21.3477C27.4602 20.5646 27.8048 19.651 27.9145 18.7053L28.1391 16.7701C28.4336 14.232 26.6096 11.9279 24.073 11.6336L13.2146 10.3737C10.4136 10.0487 7.87027 12.0644 7.54506 14.8672L7.28383 17.1187L5.37264 16.8969L5.6965 14.1057C6.11648 10.486 9.40123 7.88252 13.0187 8.30224ZM19.4333 30.7653L16.3976 35.3157C15.2302 37.0014 13.9232 37.5924 11.8869 37.3562L9.71984 37.1047C7.68061 36.8681 6.21401 35.0154 6.45081 32.9745L6.84056 29.6154C7.45337 29.5308 7.95831 29.0457 8.03284 28.4034L9.15461 18.7352C9.22914 18.0928 8.84869 17.505 8.27152 17.2823L8.53836 14.9825C8.79998 12.7277 10.846 11.1056 13.0993 11.367L16.5466 11.767L15.8312 12.3343C14.1872 13.6369 13.2267 15.4867 13.0021 17.4223C12.7776 19.3575 13.2895 21.3787 14.5907 23.023L16.3711 25.2722C16.2326 25.4662 16.1429 25.687 16.1161 25.9177C16.075 26.2717 16.1686 26.6409 16.4063 26.9413L19.4333 30.7653ZM15.375 22.4022C13.1131 19.5454 13.5974 15.3802 16.4522 13.1181L17.9412 11.9376C17.944 11.9354 17.9451 11.9319 17.948 11.9296L20.8075 12.2614L18.0537 14.4438C16.9488 15.3198 16.3029 16.5637 16.1518 17.8655C16.0009 19.1667 16.3448 20.5259 17.2197 21.6317L18.6262 23.4083L17.1177 24.6039L15.375 22.4022ZM21.0919 23.2282C20.8615 22.937 20.5314 22.7532 20.1625 22.7104C19.9116 22.6813 19.665 22.7249 19.4402 22.8251L18.004 21.0109C16.5953 19.2313 16.8968 16.6365 18.675 15.2276L22.2122 12.4244L23.9578 12.6269C25.9466 12.8576 27.3767 14.6643 27.1458 16.6548L26.9212 18.59C26.8304 19.3733 26.545 20.1301 26.0911 20.7858L22.9205 25.5382L21.0919 23.2282ZM3.43192 28.2623C3.21827 28.2375 3.06454 28.0437 3.08935 27.8298L4.21112 18.1616C4.23594 17.9477 4.42996 17.7942 4.64361 17.819L7.81874 18.1874C8.03239 18.2122 8.18612 18.406 8.1613 18.6199L7.03953 28.2881C7.01472 28.502 6.82069 28.6555 6.60705 28.6307L3.43192 28.2623ZM18.089 37.6432C16.6976 39.6524 14.326 40.7256 11.8995 40.444L9.32406 40.1452C5.7066 39.7255 3.10524 36.439 3.52522 32.8194L3.93045 29.3268L5.84164 29.5486L5.45751 32.8592C5.15717 35.4478 7.01754 37.7979 9.60459 38.098L11.7716 38.3495C14.1989 38.6311 15.8281 37.8941 17.2245 35.8776L20.0855 31.5892L21.2571 33.0693L18.089 37.6432ZM23.2293 33.9495L17.1906 26.3205C17.057 26.1517 17.0851 25.9057 17.2542 25.772L19.7605 23.7855C19.842 23.7207 19.9439 23.6917 20.0473 23.7037C20.1506 23.7157 20.2431 23.7673 20.3076 23.849L26.3466 31.4779C26.4134 31.5624 26.4397 31.6662 26.4282 31.7656C26.4167 31.8645 26.3674 31.9596 26.2829 32.0265L23.7768 34.013C23.6083 34.1463 23.3626 34.1178 23.2293 33.9495ZM34.8844 6.93837L35.519 7.74047C35.6417 7.89528 35.7666 8.04692 35.8911 8.19801C36.4727 8.9045 37.0221 9.57136 37.1723 10.4013L40.7721 30.2742C41.2075 32.6797 40.2889 35.1168 38.3738 36.6342L36.3411 38.245C34.9583 39.3415 33.2318 39.8327 31.4794 39.6294C29.7273 39.4261 28.1589 38.5526 27.0638 37.1686L24.8823 34.4129L26.3907 33.2173L28.4584 35.8293C29.2419 36.8187 30.3633 37.4438 31.6168 37.5893C32.8701 37.7347 34.1049 37.383 35.0939 36.5992L36.8044 35.2439C38.7191 33.7255 39.3503 32.0518 38.9134 29.6387L35.5005 12.5073C35.331 11.5704 34.9289 10.6807 34.338 9.93384L33.1292 8.40695C32.3612 7.437 31.2615 6.82376 30.0327 6.68119C28.8039 6.53862 27.593 6.88376 26.6233 7.65209L25.2718 8.72321C25.2322 8.71797 25.1946 8.70829 25.1547 8.70367L22.4218 8.38657L25.9389 5.59914C27.2949 4.52418 28.955 4.07828 30.6134 4.34296C32.2497 4.60457 33.7665 5.52624 34.8844 6.93837Z" fill="black"/>
<path d="M6.27462 21.9633L6.3955 20.9215C6.42735 20.6469 6.23075 20.399 5.95647 20.3672C5.6822 20.3354 5.43405 20.5317 5.4022 20.8062L5.28132 21.848C5.24947 22.1225 5.44607 22.3705 5.72035 22.4023C5.99462 22.4341 6.24277 22.2378 6.27462 21.9633Z" fill="black"/>
<path d="M5.85665 25.5687L5.97753 24.5269C6.00938 24.2524 5.81278 24.0045 5.5385 23.9726C5.26423 23.9408 5.01608 24.1372 4.98423 24.4117L4.86335 25.4535C4.8315 25.728 5.0281 25.9759 5.30238 26.0078C5.57665 26.0396 5.8248 25.8432 5.85665 25.5687Z" fill="black"/>
<path d="M21.3595 27.5768L20.7081 26.7541C20.5368 26.5376 20.2223 26.5011 20.0058 26.6726C19.8975 26.7583 19.8343 26.8798 19.8195 27.0068C19.8048 27.1339 19.8385 27.2666 19.9243 27.3749L20.5757 28.1976C20.747 28.4141 21.0615 28.4506 21.278 28.2791C21.4945 28.1076 21.531 27.7933 21.3595 27.5768Z" fill="black"/>
<path d="M23.6135 30.423L22.9622 29.6008C22.7907 29.3842 22.4764 29.3478 22.2599 29.5193C22.1517 29.605 22.0884 29.7265 22.0737 29.8535C22.0589 29.9806 22.0927 30.1133 22.1784 30.2216L22.8297 31.0438C23.0012 31.2603 23.3155 31.2968 23.532 31.1253C23.7485 30.9538 23.785 30.6395 23.6135 30.423Z" fill="black"/>
</svg>
