<svg width="45" height="45" viewBox="0 0 45 45" fill="none" xmlns="http://www.w3.org/2000/svg">
<path d="M26.0897 24.7734H14.9409C14.6316 24.7734 14.3809 25.0242 14.3809 25.3334C14.3809 25.6427 14.6316 25.8934 14.9409 25.8934H26.0897C26.399 25.8934 26.6497 25.6427 26.6497 25.3334C26.6497 25.0242 26.399 24.7734 26.0897 24.7734Z" fill="black"/>
<path d="M26.0897 28.9512H14.9409C14.6316 28.9512 14.3809 29.2019 14.3809 29.5112C14.3809 29.8204 14.6316 30.0712 14.9409 30.0712H26.0897C26.399 30.0712 26.6497 29.8204 26.6497 29.5112C26.6497 29.2019 26.399 28.9512 26.0897 28.9512Z" fill="black"/>
<path d="M25.8807 12.3652H14.7319C14.4226 12.3652 14.1719 12.616 14.1719 12.9252C14.1719 13.2345 14.4226 13.4852 14.7319 13.4852H25.8807C26.19 13.4852 26.4407 13.2345 26.4407 12.9252C26.4407 12.616 26.19 12.3652 25.8807 12.3652Z" fill="black"/>
<path d="M25.8807 8.18848H14.7319C14.4226 8.18848 14.1719 8.43922 14.1719 8.74848C14.1719 9.05773 14.4226 9.30848 14.7319 9.30848H25.8807C26.19 9.30848 26.4407 9.05773 26.4407 8.74848C26.4407 8.43922 26.19 8.18848 25.8807 8.18848Z" fill="black"/>
<path d="M17.571 44.8H23.251C23.5603 44.8 23.811 44.5493 23.811 44.24C23.811 43.9307 23.5603 43.68 23.251 43.68H23.0855V34.4047H34.1928C34.3459 34.4047 34.4922 34.3421 34.598 34.2314L40.7075 27.8297C40.9139 27.6134 40.9139 27.2727 40.7075 27.0564L34.598 20.6547C34.4922 20.5439 34.3459 20.4813 34.1928 20.4813H23.0855V17.7789H30.0494C30.3587 17.7789 30.6094 17.5282 30.6094 17.2189V4.41547C30.6094 4.10621 30.3587 3.85547 30.0494 3.85547H23.0855V2.41527C23.0855 1.08336 22.0021 0 20.6702 0H20.3618C19.0299 0 17.9465 1.08336 17.9465 2.41527V3.85547H11.6695C11.5164 3.85547 11.3701 3.91809 11.2642 4.02883L5.15483 10.4305C4.94839 10.6468 4.94839 10.9875 5.15483 11.2038L11.2642 17.6055C11.3701 17.7163 11.5164 17.7789 11.6695 17.7789H17.9465V20.4813H6.29288C5.98362 20.4813 5.73288 20.732 5.73288 21.0413V33.8447C5.73288 34.154 5.98362 34.4047 6.29288 34.4047H17.9465V43.68H17.571C17.2617 43.68 17.011 43.9307 17.011 44.24C17.011 44.5493 17.2617 44.8 17.571 44.8ZM19.0665 2.41527C19.0665 1.70105 19.6476 1.12 20.3618 1.12H20.6702C21.3844 1.12 21.9655 1.70105 21.9655 2.41527V3.85547H19.0665V2.41527ZM6.33417 10.8172L11.909 4.97547H29.4894V16.6589H11.909L6.33417 10.8172ZM19.0665 17.7789H21.9655V20.4813H19.0665V17.7789ZM6.85288 21.6013H33.9533L39.5281 27.443L33.9533 33.2847H6.85288V21.6013ZM19.0665 34.4047H21.9655V43.68H19.0665V34.4047Z" fill="black"/>
</svg>
