<svg width="35" height="35" viewBox="0 0 35 35" fill="none" xmlns="http://www.w3.org/2000/svg">
<path d="M14.3033 16.5595C10.8406 16.5595 8.02344 13.7425 8.02344 10.2798C8.02344 6.81716 10.8406 4 14.3033 4C17.766 4 20.5831 6.81716 20.5831 10.2798C20.5831 13.7425 17.766 16.5595 14.3033 16.5595V16.5595ZM14.3033 5.88393C11.8794 5.88393 9.90737 7.85571 9.90737 10.2798C9.90737 12.7038 11.8794 14.6755 14.3033 14.6755C16.7272 14.6755 18.6992 12.7038 18.6992 10.2798C18.6992 7.85571 16.7272 5.88393 14.3033 5.88393V5.88393Z" fill="black"/>
<path d="M24.6652 30.3739H3.94197C3.422 30.3739 3 29.9519 3 29.4319V25.036C3 21.7467 5.67641 19.0703 8.96571 19.0703H19.6415C22.9308 19.0703 25.6072 21.7467 25.6072 25.036V29.4319C25.6072 29.9519 25.1852 30.3739 24.6652 30.3739V30.3739ZM4.88393 28.49H23.7232V25.036C23.7232 22.7855 21.892 20.9542 19.6415 20.9542H8.96571C6.7152 20.9542 4.88393 22.7855 4.88393 25.036V28.49Z" fill="black"/>
<path d="M32.2015 16.8732H21.5259C21.006 16.8732 20.584 16.4512 20.584 15.9312C20.584 15.4113 21.006 14.9893 21.5259 14.9893H32.2015C32.7214 14.9893 33.1434 15.4113 33.1434 15.9312C33.1434 16.4512 32.7214 16.8732 32.2015 16.8732Z" fill="black"/>
<path d="M27.1761 21.8966C26.9349 21.8966 26.6939 21.8048 26.5103 21.6204C26.1424 21.2522 26.1424 20.6557 26.5103 20.2877L30.8685 15.9295L26.5103 11.5713C26.1424 11.2034 26.1424 10.6068 26.5103 10.2389C26.8783 9.8709 27.4748 9.8709 27.843 10.2389L32.8668 15.2626C33.2347 15.6306 33.2347 16.2273 32.8668 16.5953L27.843 21.619C27.6584 21.8048 27.4171 21.8966 27.1761 21.8966V21.8966Z" fill="black"/>
</svg>
