<svg width="449" height="525" viewBox="0 0 449 525" fill="none" xmlns="http://www.w3.org/2000/svg">
<g clip-path="url(#clip0)">
<path d="M447.68 373.95V127.78L330.47 0.0195312H73.6602C62.1102 0.0195312 52.7402 10.2295 52.7402 22.8195V378.14V405V504.2C52.7402 515.68 61.2702 524.979 71.8002 524.979H429C439.53 524.979 448.06 515.68 448.06 504.2V378.14C448.06 376.7 447.93 375.3 447.68 373.95Z" fill="#E1E5E4"/>
<path d="M329.6 104.96V0L448.07 127.76H350.75C339.06 127.76 329.6 117.55 329.6 104.96Z" fill="#AFB8BE"/>
<path d="M169.96 227.001C168.13 225.751 158.8 219.211 152.08 211.851C132.09 218.441 123.57 196.611 123.57 196.611C147.79 201.501 161.09 166.241 143.32 160.201C132.36 156.471 128.18 164.911 127.36 170.281C126.66 174.871 128.06 177.341 128.06 177.341C128.06 177.341 99.7103 184.351 96.2003 152.641C95.7503 133.091 112.31 105.771 146.26 128.681C128.77 95.0109 148.27 80.1509 168.3 56.1109L169.83 53.9609C190.44 79.2909 211.64 94.0209 193.64 128.691C227.59 105.781 244.15 133.101 243.7 152.651C240.19 184.371 211.84 177.351 211.84 177.351C211.84 177.351 213.24 174.891 212.54 170.291C211.72 164.921 207.55 156.481 196.58 160.211C178.82 166.251 192.12 201.521 216.33 196.621C216.33 196.621 207.81 218.451 187.82 211.861C180.35 220.041 170.16 227.141 169.96 227.001Z" fill="#C0C2C4"/>
<path d="M335.38 428.819H20.78C9.3 428.819 0 419.519 0 408.049V281.979C0 270.499 9.3 261.199 20.78 261.199H335.38C346.86 261.199 356.16 270.499 356.16 281.979V408.049C356.15 419.519 346.85 428.819 335.38 428.819Z" fill="#EA5846"/>
<path d="M92.6094 354.27H75.7594V379.97C75.7594 383.65 74.8894 386.43 73.1594 388.33C71.4294 390.23 69.2394 391.18 66.5894 391.18C63.8194 391.18 61.5894 390.24 59.8994 388.36C58.2094 386.48 57.3594 383.73 57.3594 380.09V310.1C57.3594 306.05 58.2894 303.16 60.1494 301.43C62.0094 299.7 64.9594 298.83 69.0094 298.83H92.6094C99.5894 298.83 104.959 299.37 108.709 300.44C112.429 301.47 115.639 303.19 118.339 305.58C121.039 307.97 123.099 310.91 124.499 314.37C125.899 317.84 126.609 321.74 126.609 326.08C126.609 335.33 123.759 342.34 118.059 347.11C112.359 351.89 103.879 354.27 92.6094 354.27ZM88.1494 312.65H75.7594V340.4H88.1494C92.4794 340.4 96.1094 339.95 99.0194 339.04C101.929 338.13 104.149 336.65 105.679 334.58C107.209 332.52 107.969 329.81 107.969 326.47C107.969 322.47 106.789 319.2 104.439 316.68C101.789 313.99 96.3594 312.65 88.1494 312.65Z" fill="white"/>
<path d="M153.36 298.84H177.33C183.56 298.84 188.91 299.42 193.37 300.57C197.83 301.72 201.87 303.89 205.51 307.07C214.97 315.16 219.69 327.47 219.69 343.98C219.69 349.43 219.21 354.41 218.27 358.91C217.32 363.41 215.85 367.47 213.87 371.08C211.89 374.69 209.35 377.92 206.25 380.77C203.81 382.96 201.15 384.71 198.26 386.03C195.37 387.35 192.26 388.28 188.94 388.82C185.62 389.36 181.87 389.62 177.7 389.62H153.73C150.39 389.62 147.87 389.12 146.17 388.1C144.48 387.09 143.37 385.66 142.86 383.83C142.34 381.99 142.09 379.61 142.09 376.68V310.1C142.09 306.14 142.98 303.27 144.75 301.49C146.53 299.73 149.4 298.84 153.36 298.84ZM160.49 313.39V375.02H174.43C177.48 375.02 179.88 374.94 181.61 374.77C183.34 374.6 185.14 374.19 187 373.53C188.86 372.87 190.47 371.94 191.83 370.74C197.98 365.54 201.06 356.58 201.06 343.86C201.06 334.9 199.71 328.19 197 323.73C194.29 319.27 190.96 316.43 187 315.21C183.04 313.99 178.25 313.38 172.63 313.38H160.49V313.39Z" fill="white"/>
<path d="M290.12 313.02H253.89V336.25H284.18C286.99 336.25 289.08 336.88 290.47 338.14C291.85 339.4 292.55 341.08 292.55 343.19C292.55 345.3 291.85 346.97 290.44 348.21C289.04 349.45 286.95 350.07 284.19 350.07H253.9V379.98C253.9 383.78 253.04 386.6 251.33 388.43C249.62 390.27 247.42 391.19 244.73 391.19C242 391.19 239.78 390.26 238.07 388.4C236.36 386.54 235.5 383.73 235.5 379.98V310.12C235.5 307.48 235.89 305.32 236.68 303.65C237.46 301.98 238.69 300.76 240.36 300C242.03 299.24 244.17 298.85 246.77 298.85H290.12C293.05 298.85 295.23 299.5 296.65 300.8C298.07 302.1 298.79 303.8 298.79 305.91C298.79 308.06 298.08 309.78 296.65 311.08C295.23 312.37 293.05 313.02 290.12 313.02Z" fill="white"/>
</g>
<defs>
<clipPath id="clip0">
<rect width="448.06" height="524.98" fill="white"/>
</clipPath>
</defs>
</svg>
