<svg width="35" height="35" viewBox="0 0 35 35" fill="none" xmlns="http://www.w3.org/2000/svg">
<path d="M27.4575 11.1931C27.432 10.8899 27.1778 10.6576 26.875 10.6606H22.4481V8.97493C22.4481 6.22729 20.2313 4 17.497 4C14.7626 4 12.546 6.22729 12.546 8.97493V10.6606H8.1191C7.81762 10.6617 7.56597 10.8917 7.53662 11.1931L6.01056 28.8221C5.94116 29.6394 6.21602 30.4488 6.7687 31.053C7.32114 31.6571 8.10044 32.0007 8.91705 32H26.0827C26.8993 32.0007 27.6786 31.6571 28.2311 31.053C28.7838 30.4488 29.0588 29.6394 28.9894 28.8221L27.4575 11.1931ZM13.7109 8.97493C13.7109 6.87385 15.406 5.17057 17.497 5.17057C19.5881 5.17057 21.2832 6.87385 21.2832 8.97493V10.6606H13.7109V8.97493ZM27.3701 30.2617C27.0406 30.6262 26.5726 30.8326 26.0827 30.8294H8.91114C8.42126 30.8297 7.95391 30.6232 7.62262 30.2606C7.29156 29.8978 7.12706 29.4119 7.16961 28.9215L8.64902 11.8312H12.546V15.4833C11.6092 15.7729 11.0242 16.7073 11.1701 17.6813C11.3157 18.655 12.1485 19.3752 13.1284 19.3752C14.1084 19.3752 14.941 18.655 15.0868 17.6813C15.2324 16.7073 14.6474 15.7729 13.7109 15.4833V11.8252H21.2832V15.4833C20.3464 15.7729 19.7614 16.7073 19.9073 17.6813C20.0529 18.655 20.8857 19.3752 21.8657 19.3752C22.8456 19.3752 23.6782 18.655 23.824 17.6813C23.9696 16.7073 23.3847 15.7729 22.4481 15.4833V11.8252H26.3392L27.8186 28.9156C27.8663 29.408 27.7032 29.8975 27.3701 30.2617V30.2617ZM13.0411 16.572C13.0991 16.5798 13.1578 16.5798 13.2158 16.572C13.6465 16.6186 13.966 16.9959 13.9428 17.4305C13.9193 17.8653 13.5617 18.206 13.1284 18.206C12.695 18.206 12.3373 17.8653 12.3141 17.4305C12.2909 16.9959 12.6101 16.6186 13.0411 16.572ZM21.7783 16.572C21.8363 16.5798 21.895 16.5798 21.953 16.572C22.3837 16.6186 22.7032 16.9959 22.68 17.4305C22.6566 17.8653 22.2989 18.206 21.8657 18.206C21.4322 18.206 21.0745 17.8653 21.0513 17.4305C21.0281 16.9959 21.3473 16.6186 21.7783 16.572V16.572Z" fill="black" stroke="black" stroke-width="0.5"/>
</svg>
