<svg width="39" height="39" viewBox="0 0 39 39" fill="none" xmlns="http://www.w3.org/2000/svg">
<g clip-path="url(#clip0)">
<path d="M39 37.2766L25.7824 24.059C27.9411 21.5099 29.25 18.2194 29.25 14.625C29.25 6.56029 22.6897 0 14.625 0C6.56036 0 0 6.56029 0 14.625C0 22.6897 6.56029 29.25 14.625 29.25C18.2194 29.25 21.5099 27.9411 24.059 25.7824L37.2766 39L39 37.2766ZM14.625 26.8125C7.90522 26.8125 2.43753 21.3448 2.43753 14.625C2.43753 7.90522 7.90522 2.43753 14.625 2.43753C21.3448 2.43753 26.8125 7.90522 26.8125 14.625C26.8125 21.3448 21.3448 26.8125 14.625 26.8125Z" fill="black"/>
</g>
<defs>
<clipPath id="clip0">
<rect width="39" height="39" fill="white"/>
</clipPath>
</defs>
</svg>
