<svg width="15" height="25" viewBox="0 0 15 25" fill="none" xmlns="http://www.w3.org/2000/svg">
<path d="M15 12.4344C15 12.435 15 12.4356 15 12.4363C15 12.8816 14.8024 13.2848 14.483 13.5762L3.01251 24.0738C2.69316 24.366 2.25199 24.5468 1.76469 24.5468C0.790108 24.5468 -4.10921e-06 23.8237 -3.95326e-06 22.9318C-3.87528e-06 22.4858 0.197504 22.0821 0.516857 21.7898L10.7396 12.4344L0.517136 3.07876C0.197783 2.78649 0.000275372 2.38274 0.00027545 1.93678C0.000275606 1.04487 0.79036 0.321777 1.76497 0.321778C2.25227 0.321778 2.69341 0.502532 3.01279 0.794796L14.4833 11.2923C14.8025 11.5838 15 11.9868 15 12.4321C15 12.4329 15 12.4337 15 12.4345L15 12.4344Z" fill="#D6D8E5"/>
</svg>
