<?xml version="1.0" encoding="utf-8"?>
<svg version="1.1" xmlns="http://www.w3.org/2000/svg" xmlns:xlink="http://www.w3.org/1999/xlink" x="0px" y="0px"
	 viewBox="0 0 1443 962.44" style="enable-background:new 0 0 1443 962.44;" xml:space="preserve">
<style type="text/css">
	.st0{fill:#E4F1FD;}
	.st1{fill:#FFFFFF;}
	.st2{fill:none;stroke:#B4CE4E;stroke-width:3;}
	.st3{opacity:0.21;}
	.st4{fill:#B4CE4E;}
	.st5{fill:#45266A;}
	.st6{fill:url(#);}
	.st7{fill:#FFFFFF;stroke:#E4F1FD;stroke-width:2;}
	.st8{fill:#45266A;stroke:#7F7B7A;stroke-width:2;stroke-linecap:round;stroke-linejoin:round;stroke-miterlimit:10;}
	.st9{fill:#7F7B7A;}
	.st10{opacity:0.4;fill:#B4CE4E;stroke:#E4F1FD;stroke-width:2;}
	.st11{clip-path:url(#SVGID_00000006682699204589362440000005472200979893159853_);fill:#E9AF00;}
	.st12{clip-path:url(#SVGID_00000116939020592003474610000000877843069354818974_);fill:#003D1C;}
	.st13{clip-path:url(#SVGID_00000032631503874405960060000011041798411522023836_);fill:#712335;}
	.st14{clip-path:url(#SVGID_00000032631503874405960060000011041798411522023836_);fill:none;stroke:#712335;stroke-miterlimit:10;}
	.st15{clip-path:url(#SVGID_00000132808002498485634550000009917889231715707528_);fill:#BF0D0D;}
	.st16{fill:#B4CE4E;stroke:url(#);}
	.st17{opacity:0.8;enable-background:new;}
	.st18{fill:none;stroke:#45266A;stroke-miterlimit:10;}
	.st19{fill:#E3EFFB;}
	.st20{filter:url(#Adobe_OpacityMaskFilter);}
	.st21{mask:url(#mask-4_3_);fill:#B4CE4E;}
	.st22{fill:#FFFFFF;stroke:#E4F1FD;stroke-width:3;}
	.st23{opacity:0.4;fill:#B4CE4E;enable-background:new;}
	.st24{filter:url(#Adobe_OpacityMaskFilter_00000013893946020348727610000010091568246927316614_);}
	.st25{mask:url(#mask-4_1_);fill:#B4CE4E;}
	.st26{fill:none;stroke:#009FE8;stroke-width:3;stroke-miterlimit:10;}
	.st27{fill:none;stroke:#FFFFFF;stroke-width:3;stroke-miterlimit:10;}
</style>
<g id="ランディングページ_4">
</g>
<g id="ランディングページ_3">
</g>
<g id="ランディングページ_2">
</g>
<g id="ランディングページ_1">
	<g>
		<path class="st1" d="M4.41,908.51l0.17-7.28L3,895.97v11.33C3.48,907.7,3.95,908.1,4.41,908.51z"/>
		<polygon class="st1" points="1440,-13.77 1438.42,53.21 1440,58.47 		"/>
		<path class="st1" d="M1440,77.67V61.22c-64.49-22.45-176.21-37.62-244-41.84c-151.68-9.44-257.48,29.34-409.43,32.29
			c-42.78,0.83-85.62-1.06-128.16-5.65c-50.67-5.47-100.85-14.77-151.38-21.44C338.48,2.33,166.04,9.66,0,46.06v830.71h3v16.45
			c64.49,22.45,176.21,37.62,244,41.84c151.68,9.44,257.48-29.34,409.43-32.29c42.78-0.83,85.62,1.06,128.16,5.65
			c50.67,5.47,100.85,14.77,151.38,21.44c168.55,22.25,340.99,14.92,507.03-21.48V77.67H1440z"/>
	</g>
	<g class="st3">
		<path class="st4" d="M9.41,908.51l0.17-7.28L8,895.97v11.33C8.48,907.7,8.95,908.1,9.41,908.51z"/>
		<path class="st4" d="M1445,61.22c-64.49-22.45-176.21-37.62-244-41.84c-151.68-9.44-257.48,29.34-409.43,32.29
			c-42.78,0.83-85.62-1.06-128.16-5.65c-50.67-5.47-100.85-14.77-151.38-21.44C343.48,2.33,171.04,9.66,5,46.06v830.71h3v16.45
			c64.49,22.45,176.21,37.62,244,41.84c151.68,9.44,257.48-29.34,409.43-32.29c42.78-0.83,85.62,1.06,128.16,5.65
			c50.67,5.47,100.85,14.77,151.38,21.44c168.55,22.25,340.99,14.92,507.03-21.48V77.67h-3V61.22z"/>
	</g>
</g>
<g id="アイコンとフォームフィールド">
</g>
</svg>
