<svg width="15" height="25" viewBox="0 0 15 25" fill="none" xmlns="http://www.w3.org/2000/svg">
<path d="M8.58264e-07 12.4339C8.58214e-07 12.4333 8.58161e-07 12.4327 8.58102e-07 12.432C8.19529e-07 11.9867 0.197619 11.5835 0.516972 11.2921L11.9875 0.794524C12.3068 0.502259 12.748 0.321505 13.2353 0.321505C14.2099 0.321505 15 1.04457 15 1.9365C15 2.38247 14.8025 2.7862 14.4831 3.07849L4.26035 12.4339L14.4829 21.7895C14.8022 22.0818 14.9997 22.4855 14.9997 22.9315C14.9997 23.8234 14.2096 24.5465 13.235 24.5465C12.7477 24.5465 12.3066 24.3658 11.9872 24.0735L0.516724 13.576C0.197508 13.2845 8.97032e-07 12.8815 8.58467e-07 12.4362C8.58395e-07 12.4354 8.58323e-07 12.4346 8.58253e-07 12.4338L8.58264e-07 12.4339Z" fill="#D6D8E5"/>
</svg>
