<svg width="40" height="19" viewBox="0 0 40 19" fill="none" xmlns="http://www.w3.org/2000/svg">
<path d="M0 0H40V19H0V0Z" fill="#00337F"/>
<path d="M13.3424 11.816C13.3424 12.184 13.2664 12.504 13.1144 12.776C12.9624 13.048 12.7544 13.276 12.4904 13.46C12.2264 13.636 11.9184 13.772 11.5664 13.868C11.2144 13.956 10.8424 14 10.4504 14H6.29842V5.48H11.0384C11.3344 5.48 11.6024 5.544 11.8424 5.672C12.0824 5.8 12.2864 5.968 12.4544 6.176C12.6224 6.376 12.7504 6.608 12.8384 6.872C12.9344 7.128 12.9824 7.392 12.9824 7.664C12.9824 8.072 12.8784 8.456 12.6704 8.816C12.4704 9.176 12.1664 9.448 11.7584 9.632C12.2464 9.776 12.6304 10.032 12.9104 10.4C13.1984 10.768 13.3424 11.24 13.3424 11.816ZM11.3384 11.42C11.3384 11.156 11.2624 10.932 11.1104 10.748C10.9584 10.564 10.7664 10.472 10.5344 10.472H8.26642V12.332H10.4504C10.7064 12.332 10.9184 12.248 11.0864 12.08C11.2544 11.912 11.3384 11.692 11.3384 11.42ZM8.26642 7.16V8.924H10.1984C10.4144 8.924 10.6064 8.852 10.7744 8.708C10.9424 8.564 11.0264 8.34 11.0264 8.036C11.0264 7.756 10.9504 7.54 10.7984 7.388C10.6544 7.236 10.4784 7.16 10.2704 7.16H8.26642ZM20.4895 12.272V14H14.5015V5.48H20.3815V7.208H16.4695V8.864H19.8295V10.46H16.4695V12.272H20.4895ZM28.1771 7.208H25.5851V14H23.6171V7.208H21.0131V5.48H28.1771V7.208ZM30.6105 5.48H32.3865L35.4945 14H33.4785L32.8185 12.092H30.1665L29.5185 14H27.5025L30.6105 5.48ZM32.4945 10.736L31.4985 7.724L30.4785 10.736H32.4945Z" fill="white"/>
</svg>
