<?xml version="1.0" encoding="utf-8"?>
<!-- Generator: Adobe Illustrator 24.2.0, SVG Export Plug-In . SVG Version: 6.00 Build 0)  -->
<svg version="1.1" id="Camada_1" xmlns="http://www.w3.org/2000/svg" xmlns:xlink="http://www.w3.org/1999/xlink" x="0px" y="0px" viewBox="0 0 32 32" style="enable-background:new 0 0 24 24;" xml:space="preserve">
<style type="text/css">
	.st0{fill:#FFFFFF;}
</style>
<g>
	<path class="st0" d="M14.77,9.02c-4.73,0.87-7.24,6.14-4.89,10.31c0.26,0.46,0.33,0.84,0.16,1.34c-0.21,0.59-0.34,1.21-0.52,1.88
		c0.84-0.22,1.61-0.41,2.38-0.63c0.22-0.06,0.38-0.03,0.57,0.08c1.45,0.83,3,1.15,4.66,0.88c3.82-0.61,6.43-4.19,5.85-7.99
		C22.38,10.95,18.68,8.31,14.77,9.02z M18.22,19.97c-1.64-0.06-4.26-1.36-6.05-4.47c-0.64-1.11-0.54-2.37,0.39-3.23
		c0.32-0.29,0.71-0.22,1.08-0.16c0.09,0.01,0.19,0.15,0.23,0.26c0.24,0.54,0.47,1.09,0.68,1.64c0.11,0.29-0.09,0.57-0.52,1.06
		c-0.14,0.15-0.16,0.3-0.06,0.48c0.69,1.17,1.65,2.01,2.92,2.51c0.19,0.07,0.33,0.03,0.44-0.12c0.67-0.82,0.74-1.06,1.09-0.89
		c1.7,0.81,1.83,0.85,1.84,1.04C20.33,19.51,19.02,20.03,18.22,19.97z"/>
	<path class="st0" d="M24.28,0H7.72C3.46,0,0,3.46,0,7.72v16.55C0,28.54,3.46,32,7.72,32h16.55c4.27,0,7.72-3.46,7.72-7.72V7.72
		C32,3.46,28.54,0,24.28,0z M17.49,24.24c-1.83,0.32-3.58,0.05-5.25-0.77c-0.15-0.07-0.36-0.09-0.52-0.06
		c-2.23,0.56-3.71,0.98-4.16,1.07c0.09-0.37,0.18-0.68,0.26-1c0.28-1.02,0.57-2.04,0.83-3.06c0.04-0.15,0.02-0.35-0.05-0.49
		C6.02,15,8.69,9.02,14.12,7.75c4.93-1.16,9.37,2.17,10.18,6.63C25.14,19.02,22.1,23.43,17.49,24.24z"/>
</g>
</svg>
